<svg xmlns="http://www.w3.org/2000/svg" width="25.009" height="23" viewBox="0 0 25.009 23">
  <g id="Layer_1" data-name="Layer 1" transform="translate(0.03 0)">
    <g id="Group_526" data-name="Group 526" transform="translate(-0.03 0)">
      <path id="Path_1449" data-name="Path 1449" d="M-.028,21.407V1.595A1.858,1.858,0,0,1,1.861.006c.089,0,.179,0,.268,0C4.3,0,6.471.007,8.642,0A2.282,2.282,0,0,1,10.43.732c.593.636,1.235,1.227,1.836,1.855a1.052,1.052,0,0,0,.833.35c3.244-.012,6.489-.007,9.733-.007a2.249,2.249,0,0,1,1.428.4,1.692,1.692,0,0,1,.72,1.418q-.008,8.209,0,16.419a1.77,1.77,0,0,1-1.413,1.748,3.163,3.163,0,0,1-.7.082H2.054a2.349,2.349,0,0,1-.841-.119A1.715,1.715,0,0,1-.03,21.406Z" transform="translate(0.03 0)" fill="#010101"/>
      <path id="Path_1450" data-name="Path 1450" d="M33.166,118.24c-.081,0-.162.014-.243.014q-10.207,0-20.413,0a1.228,1.228,0,0,1-1.031-.386,1.091,1.091,0,0,1-.265-.715q0-5.171,0-10.342a1.074,1.074,0,0,1,1.131-1.085c1.366,0,2.732,0,4.1,0,2.106,0,4.211,0,6.317,0a.778.778,0,0,0,.6-.245c.768-.784,1.549-1.555,2.324-2.332a1.117,1.117,0,0,1,.824-.355q3.5,0,7,0a.808.808,0,0,1,.1.011.585.585,0,0,1,.082.42q0,2.582,0,5.164v8.648a1.851,1.851,0,0,1-.087.672.823.823,0,0,1-.441.523Z" transform="translate(-10.48 -96.096)" fill="#ffd067"/>
      <path id="Path_1451" data-name="Path 1451" d="M33.574,16.614c-.113,0-.227.013-.34.013H12.623c-.082,0-.163,0-.244,0-.3.014-.421.143-.421.444,0,1.244,0,2.488,0,3.732,0,.179-.023.285-.225.32a1.5,1.5,0,0,0-.5.25c0-.093-.01-.161-.01-.229q0-3.5,0-7a1.086,1.086,0,0,1,1.155-1.161c2.342,0,4.683,0,7.025,0a1.17,1.17,0,0,1,.871.363c.774.779,1.555,1.549,2.325,2.332a.751.751,0,0,0,.583.237q4.842-.006,9.684,0c.1,0,.211.008.316.012a.659.659,0,0,1,.391.691Z" transform="translate(-10.492 -12.133)" fill="#febc2d"/>
      <path id="Path_1452" data-name="Path 1452" d="M35.771,95.741c.085.306.172.37.53.37q2.451,0,4.9,0h4.659c-.012.1-.084.135-.132.183-.62.623-1.242,1.242-1.86,1.866a.435.435,0,0,1-.338.147q-4.867-.006-9.734,0c-.16,0-.226-.025-.222-.207.012-.6.01-1.2,0-1.805,0-.151.038-.194.188-.187.276.012.553,0,.83,0a.4.4,0,0,0,.458-.37.757.757,0,0,1,.716,0Z" transform="translate(-31.386 -89.412)" fill="#fff"/>
      <path id="Path_1453" data-name="Path 1453" d="M347.84,118.408a1.624,1.624,0,0,0,.452-1.283q-.016-7.072-.008-14.144a1.067,1.067,0,0,1,1.121,1.034c0,.081,0,.162,0,.244v12.849c0,.913-.4,1.315-1.324,1.314C348,118.422,347.92,118.413,347.84,118.408Z" transform="translate(-325.154 -96.264)" fill="#febc2d"/>
      <path id="Path_1454" data-name="Path 1454" d="M35.738,81.392h-.716a.394.394,0,0,0-.457-.365c-.284.006-.569,0-.854,0-.13,0-.16-.04-.164-.166-.016-.565-.02-.565.54-.565H52.7c.1,0,.211.008.316.013a.739.739,0,0,1,.067.565.156.156,0,0,1-.187.147c-.073,0-.146,0-.22,0H36.282a.968.968,0,0,0-.291.014.419.419,0,0,0-.254.352Z" transform="translate(-31.353 -75.063)" fill="#c2e7f4"/>
      <path id="Path_1455" data-name="Path 1455" d="M348.311,58.473a1.3,1.3,0,0,0-.391-.691.382.382,0,0,1,.048-.01c1.168-.111,1.589.533,1.518,1.454-.027.346,0,.7,0,1.068a2.812,2.812,0,0,0-.648-.282c-.1-.018-.084-.1-.084-.176v-.827C348.748,58.627,348.679,58.542,348.311,58.473Z" transform="translate(-325.229 -53.993)" fill="#f9a43a"/>
      <path id="Path_1456" data-name="Path 1456" d="M71.11,81.025c.093-.076.2-.04.306-.04q8.193,0,16.384,0a.3.3,0,0,0,.338-.343c0-.113,0-.228,0-.341l1-.013c.016,0,.04-.007.048,0,.17.183.04.406.077.608.023.126-.072.119-.155.119l-1.268,0H71.475C71.353,81.016,71.232,81.022,71.11,81.025Z" transform="translate(-66.471 -75.048)" fill="#97daf2"/>
    </g>
  </g>
</svg>
