<svg xmlns="http://www.w3.org/2000/svg" width="28.291" height="37.689" viewBox="0 0 28.291 37.689">
  <g id="Group_714" data-name="Group 714" transform="translate(-344.698 -424.963)">
    <g id="Group_540" data-name="Group 540" transform="translate(344.698 424.963)">
      <path id="Path_1468" data-name="Path 1468" d="M363.361,462.652H345.29a.593.593,0,0,1-.592-.593v-36.5a.593.593,0,0,1,.592-.593H372.4a.594.594,0,0,1,.593.6l-.1,27.47a.588.588,0,0,1-.171.414l-8.932,9.033A.589.589,0,0,1,363.361,462.652Zm-17.478-1.186h17.231l8.587-8.684.1-26.634H345.883Z" transform="translate(-344.698 -424.963)" fill="#e91414"/>
    </g>
    <g id="Group_541" data-name="Group 541" transform="translate(362.768 452.433)">
      <path id="Path_1469" data-name="Path 1469" d="M374.633,479.789a.585.585,0,0,1-.225-.044.593.593,0,0,1-.368-.549v-4.5c0-3.546,1.564-5.128,5.069-5.128h4.455a.593.593,0,0,1,.421,1.009l-8.932,9.033A.587.587,0,0,1,374.633,479.789Zm4.477-9.033c-2.831,0-3.883,1.068-3.883,3.942v3.054l6.917-7Z" transform="translate(-374.041 -469.57)" fill="#e91414"/>
    </g>
    <g id="Group_542" data-name="Group 542" transform="translate(345.348 425.556)">
      <rect id="Rectangle_275" data-name="Rectangle 275" width="26.991" height="9.125" fill="#e91414"/>
    </g>
    <g id="Group_543" data-name="Group 543" transform="translate(352.391 427.521)">
      <path id="Path_1470" data-name="Path 1470" d="M358.215,434.3h-1.024V433.4h1.024Zm2.072-1.883V434.3h-1.023v-5.184h2.048a2.039,2.039,0,0,1,1.392.464,1.537,1.537,0,0,1,.507,1.2,1.556,1.556,0,0,1-.507,1.2,2.086,2.086,0,0,1-1.392.442Zm0-.8h1.025a.822.822,0,0,0,.645-.231.834.834,0,0,0,.218-.605.877.877,0,0,0-.218-.616.8.8,0,0,0-.645-.244h-1.025Zm3.672,2.686v-5.184h1.761a2.1,2.1,0,0,1,2.164,2.174v.849a2.078,2.078,0,0,1-2.164,2.162Zm1.035-4.382v3.58h.68a1.076,1.076,0,0,0,.863-.373,1.512,1.512,0,0,0,.311-.988v-.86a1.457,1.457,0,0,0-.311-.977,1.048,1.048,0,0,0-.863-.384Zm6.871,2.231h-2.152v2.15H368.69v-5.184h3.534v.8h-2.51v1.429h2.152Z" transform="translate(-357.191 -429.117)" fill="#fff"/>
    </g>
    <g id="Group_544" data-name="Group 544" transform="translate(351.265 438.448)">
      <path id="Path_1471" data-name="Path 1471" d="M367.826,456.334a11.9,11.9,0,0,0-2.1.235,20.365,20.365,0,0,1-3.165-4.766c.828-3.546.414-4.046.23-4.278-.2-.256-.472-.663-.783-.663a3.049,3.049,0,0,0-.633.1,1.239,1.239,0,0,0-.713.769c-.438,1.046.172,2.812.782,4.184a41.766,41.766,0,0,1-2.359,6.767c-2.359,1.092-3.614,2.161-3.718,3.185a1.5,1.5,0,0,0,.691,1.407.94.94,0,0,0,.6.209c.552,0,1.093-.418,1.737-1.325a18.087,18.087,0,0,0,1.485-2.674,29.8,29.8,0,0,1,5.5-1.777,4.128,4.128,0,0,0,2.625,1.441,1.64,1.64,0,0,0,1.381-.756,1.282,1.282,0,0,0,.241-1.349c-.241-.476-.829-.711-1.807-.711Zm-11.154,6.094c-.288-.233-.275-.384-.265-.442.034-.349.576-.966,1.911-1.721-1.012,1.883-1.553,2.128-1.646,2.163ZM361.783,448c.034-.012.656.7.069,2.023a1.517,1.517,0,0,1-.069-2.023Zm-1.278,10.079a44.514,44.514,0,0,0,1.658-4.755,22.008,22.008,0,0,0,2.382,3.487,32.348,32.348,0,0,0-4.04,1.267Zm8.035-.291a.943.943,0,0,1-.76.268c-.334,0-.449-.2-.955-.594a10.381,10.381,0,0,1,1.128-.058,1.307,1.307,0,0,1,.725.117.972.972,0,0,1-.137.267Z" transform="translate(-355.362 -446.861)" fill="#e91414"/>
    </g>
  </g>
</svg>
