<?xml version="1.0" encoding="utf-8"?>
<!-- Svg Vector Icons : http://www.onlinewebfonts.com/icon -->
<!DOCTYPE svg PUBLIC "-//W3C//DTD SVG 1.1//EN" "http://www.w3.org/Graphics/SVG/1.1/DTD/svg11.dtd">
<svg version="1.1" xmlns="http://www.w3.org/2000/svg" xmlns:xlink="http://www.w3.org/1999/xlink" x="0px" y="0px" viewBox="0 0 256 256" enable-background="new 0 0 256 256" xml:space="preserve">
<metadata> Svg Vector Icons : http://www.onlinewebfonts.com/icon </metadata>
<g><g><g><path fill="#000000" d="M167.2,10.1c-9.6,1.1-17.6,3.8-24.8,8.6c-3,2-11.6,10.3-31.1,29.9c-14.8,15-27.8,28.3-28.7,29.7c-10.1,15.1-12.4,36.6-5.8,54.7c2.8,7.7,6.7,13.5,15.1,22.1c9.3,9.5,11.9,11,16.7,9.2c0.9-0.3,5.3-4.3,9.8-8.8c9.1-9,9.9-10.4,8.7-14.8c-0.5-1.9-2.1-3.9-7.9-9.9c-8.2-8.4-9.1-10-9.6-17.5c-0.3-4.7,0.4-9.2,2.2-12.6c0.6-1.1,12.6-13.5,26.7-27.6c28.7-28.5,26.4-26.8,35.1-26.8c10.7,0,15.5,2.2,24.6,11.4c9.2,9.2,11.5,13.9,11.5,24.8c0,7.9-0.4,8.7-10.9,19.1l-9.1,9.1l1.5,2.9c5.7,11.3,7.6,26.8,5,40.5c-0.3,1.8,1.7-0.1,19-17.2c10.6-10.5,20.3-20.7,21.6-22.6c12.9-18.7,12.3-49.3-1.4-69.7c-2.5-3.7-19-20.3-23-23.2C200.6,12.9,182.3,8.4,167.2,10.1z"/><path fill="#000000" d="M145.8,92.5c-0.9,0.6-5.2,4.6-9.4,8.8c-7.5,7.6-7.7,7.8-8,10.6c-0.1,1.6-0.1,3.6,0.1,4.5c0.2,0.9,3.3,4.5,7.2,8.5c7.2,7.3,8.7,9.6,9.8,14.7c0.9,4.2,0.5,12.3-0.7,14.9c-0.6,1.1-12.6,13.6-27.2,28.1C92,208.1,91.3,208.8,88,209.8c-4.9,1.5-12.2,1-16.7-1c-4.5-2.1-19.4-16.7-22-21.6c-3.4-6.4-4.4-13.9-2.6-20.1c0.8-2.8,1.8-4,9.9-12.3l9.1-9.2l-2.2-4.9c-4.9-10.9-6.5-25.7-4.2-38.1c0.4-2.2-0.3-1.5-18.1,16c-10.1,10.1-19.7,20-21.3,22.1c-3.5,4.5-6.2,10.1-8.3,16.9c-1.5,4.9-1.6,5.8-1.6,16c0,10,0.1,11.3,1.5,16.5c1.8,6.4,5.5,14.7,9.1,19.9c3,4.5,19,20.7,24.1,24.6c19.6,14.8,50.6,15.4,70.2,1.4c1.9-1.4,15.5-14.6,30.1-29.3c30-30.1,30.3-30.5,34.4-42.8c5.8-17.7,2.1-41.2-8.9-55.3c-3.6-4.7-15.2-15.9-17.1-16.6C150.9,91.1,147.7,91.3,145.8,92.5z"/></g></g></g>
</svg>