<svg id="Layer_1" data-name="Layer 1" xmlns="http://www.w3.org/2000/svg" width="30.907" height="30.906" viewBox="0 0 46.907 46.906">
  <g id="Group_539" data-name="Group 539">
    <path id="Path_1466" data-name="Path 1466" d="M181.126,12c-.1.474-.179.952-.289,1.422a10.708,10.708,0,0,1-2.879,5.216c-3.382,3.4-6.759,6.8-10.177,10.161a10.459,10.459,0,0,1-6.8,2.981,10.612,10.612,0,0,1-8.343-2.995,3.1,3.1,0,0,1,.195-4.824,3.146,3.146,0,0,1,3.792.068,6.163,6.163,0,0,0,2.289,1.372,4.5,4.5,0,0,0,4.355-.976c1.076-.969,2.076-2.025,3.1-3.049q3.5-3.492,7-6.994a4.679,4.679,0,1,0-6.45-6.781c-1.483,1.409-2.905,2.881-4.354,4.325-.5.5-1,.985-1.488,1.492a.911.911,0,0,1-1.076.258,15.13,15.13,0,0,0-5.185-.97.943.943,0,0,1-.7-.457c-.1-.22.039-.559.11-.836.026-.1.158-.181.244-.267q3.889-3.884,7.776-7.77A11.163,11.163,0,0,1,167.921.231c.4-.084.8-.155,1.2-.231h2.107c.46.093.925.163,1.379.281A10.766,10.766,0,0,1,180.785,8.3c.147.523.228,1.065.339,1.6V12Z" transform="translate(-134.218)"/>
    <path id="Path_1467" data-name="Path 1467" d="M0,151.561c.088-.429.173-.86.266-1.289a10.965,10.965,0,0,1,3.061-5.519q4.837-4.844,9.677-9.687a10.714,10.714,0,0,1,6.548-3.245,10.493,10.493,0,0,1,9.258,3.367,3,3,0,0,1-.131,4.083,3.179,3.179,0,0,1-4.138.309,6.539,6.539,0,0,0-2.188-1.373,4.573,4.573,0,0,0-4.737,1.13c-3.358,3.313-6.706,6.636-10.007,10.006A4.658,4.658,0,0,0,8.642,156.7a4.721,4.721,0,0,0,5.677-.835c1.046-1.026,2.073-2.072,3.108-3.109.852-.853,1.713-1.7,2.551-2.564a1,1,0,0,1,1.192-.285,13.971,13.971,0,0,0,5.1.922.685.685,0,0,1,.75.476,2.324,2.324,0,0,1-.128.845c-.008.039-.056.071-.088.1-2.935,2.915-5.83,5.871-8.824,8.724a9.791,9.791,0,0,1-5.546,2.486,2.449,2.449,0,0,0-.338.1H9.8c-.354-.07-.711-.126-1.06-.213a10.834,10.834,0,0,1-8.39-8.037C.2,154.775.116,154.217,0,153.668Z" transform="translate(0 -116.656)"/>
  </g>
</svg>
