<svg id="Group_17" data-name="Group 17" xmlns="http://www.w3.org/2000/svg" xmlns:xlink="http://www.w3.org/1999/xlink" width="35.48" height="39.943" viewBox="0 0 35.48 39.943">
  <defs>
    <clipPath id="clip-path">
      <rect id="Rectangle_11" data-name="Rectangle 11" width="35.48" height="39.943" fill="#5a6fa4"/>
    </clipPath>
  </defs>
  <g id="Group_11" data-name="Group 11" clip-path="url(#clip-path)">
    <path id="Path_34" data-name="Path 34" d="M2.06,39.943c-.155-.058-.312-.113-.466-.174A2.5,2.5,0,0,1,.009,37.355c-.01-1.755,0-3.51,0-5.265q0-2.535,0-5.07a2.485,2.485,0,0,1,.019-.427.519.519,0,0,1,.5-.46.52.52,0,0,1,.6.388,1.8,1.8,0,0,1,.048.5q0,4.446,0,8.892v.531l12.517-6.877L1.234,17.032c-.023.261-.056.469-.056.676q-.006,3.061,0,6.123c0,.625-.193.911-.6.9s-.565-.274-.566-.892C.006,21.8.02,19.758,0,17.718A2.836,2.836,0,0,1,.932,15.5c.655-.613,1.29-1.247,1.915-1.89a.8.8,0,0,0,.209-.5c.016-1.586.006-3.172.01-4.758a2.513,2.513,0,0,1,2.666-2.66q2.4-.009,4.8,0a.873.873,0,0,0,.685-.272C12.745,3.9,14.289,2.393,15.829.88a2.517,2.517,0,0,1,3.823,0c1.54,1.512,3.084,3.02,4.615,4.54a.871.871,0,0,0,.683.275c1.586-.012,3.172-.009,4.758-.005a2.521,2.521,0,0,1,2.708,2.7c0,.39.007.78,0,1.17a.569.569,0,0,1-.555.623.582.582,0,0,1-.607-.618c-.014-.415,0-.832-.005-1.248a1.344,1.344,0,0,0-1.461-1.454q-5.188-.006-10.375,0H5.875c-1.154,0-1.64.483-1.64,1.627q0,4.738-.005,9.477a.785.785,0,0,0,.254.612q5.073,5.048,10.13,10.113a.385.385,0,0,0,.563.074c.457-.272.926-.525,1.4-.77a2.4,2.4,0,0,1,2.283-.024c.51.256,1.011.534,1.5.821a.322.322,0,0,0,.466-.067Q25.943,23.6,31.061,18.49a.8.8,0,0,0,.178-.515c.012-1.885.006-3.77.01-5.655a1.306,1.306,0,0,1,.065-.457.571.571,0,0,1,1.092.169c.023.35-.016.7.02,1.051a.952.952,0,0,0,.223.534c.642.663,1.3,1.307,1.969,1.947a2.708,2.708,0,0,1,.86,2.054q-.008,9.828,0,19.655a2.477,2.477,0,0,1-1.958,2.6.394.394,0,0,0-.095.064H26.478c-.285-.18-.489-.413-.367-.771s.424-.422.761-.4c.1.007.208,0,.312,0,1.9,0,3.8,0,5.693,0a1.236,1.236,0,0,0,1.342-1.027c-.051-.033-.1-.071-.159-.1Q26.279,33.367,18.5,29.089a1.485,1.485,0,0,0-1.549.018q-6.685,3.684-13.378,7.355c-.782.43-1.563.863-2.337,1.29A1.33,1.33,0,0,0,2.72,38.773q10.587,0,21.174,0c.336,0,.638.046.763.4s-.085.588-.363.772ZM34.266,17.025,21.8,29.568l12.47,6.85ZM12.865,5.652h9.993c-.3-.285-.531-.506-.762-.733-1.1-1.082-2.2-2.169-3.309-3.248a1.349,1.349,0,0,0-2.089,0c-.187.181-.377.358-.556.546-1.112,1.164-2.221,2.33-3.278,3.439M3.043,15.172l-.891.872.891,1.043ZM32.45,15.1v1.966l.99-.979-.99-.987" transform="translate(0.001 0)" fill="#5a6fa4"/>
    <path id="Path_35" data-name="Path 35" d="M121.135,100.96c.135-.63.324-.836.717-.789.372.044.5.28.5.907,0,1.391-.006,2.781-.015,4.172,0,.33.039.693.369.786a1.189,1.189,0,0,0,.872-.117,1.868,1.868,0,0,0,.642-.8,4.353,4.353,0,0,0-3.179-5.944,4.722,4.722,0,1,0-1.688,9.28c.155.019.31.034.465.054a.58.58,0,0,1,.571.61.6.6,0,0,1-.713.548,5.98,5.98,0,0,1-2.963-.974,5.891,5.891,0,1,1,8.8-6.886,5.057,5.057,0,0,1-.414,4.178,2.361,2.361,0,0,1-2.005,1.294,1.772,1.772,0,0,1-1.719-.968c-.1.076-.192.142-.281.209a2.33,2.33,0,0,1-2.861.023,3.617,3.617,0,0,1-.467-5.139A2.576,2.576,0,0,1,121,100.9c.044.024.091.041.14.062m.082,2.744a7.1,7.1,0,0,0-.229-1.017,1.377,1.377,0,0,0-2.473-.358,2.5,2.5,0,0,0,.214,3.117,1.218,1.218,0,0,0,1.9-.1,2.834,2.834,0,0,0,.583-1.64" transform="translate(-102.178 -87.691)" fill="#5a6fa4"/>
  </g>
</svg>
