<svg xmlns="http://www.w3.org/2000/svg" xmlns:xlink="http://www.w3.org/1999/xlink" width="47.279" height="47.469" viewBox="0 0 47.279 47.469">
  <defs>
    <clipPath id="clip-path">
      <rect id="Rectangle_746" data-name="Rectangle 746" width="47.279" height="47.468" transform="translate(237.326 359.939)" fill="#5a6fa4"/>
    </clipPath>
  </defs>
  <g id="Group_1584" data-name="Group 1584" transform="translate(-237.326 -359.939)">
    <g id="Group_1583" data-name="Group 1583">
      <g id="Group_1582" data-name="Group 1582" clip-path="url(#clip-path)">
        <path id="Path_2682" data-name="Path 2682" d="M260.989,359.892a23.663,23.663,0,1,0,23.663,23.663,23.664,23.664,0,0,0-23.663-23.663Zm0,8.312,14,8.732H246.986Zm14.177,22.675h0a2.535,2.535,0,0,1-2.536,2.536h-23.28a2.537,2.537,0,0,1-2.536-2.536V377.491a2.572,2.572,0,0,1,.04-.433l13.379,8.343c.017.01.034.017.05.026l.055.028a1.384,1.384,0,0,0,.291.114l.03.007a1.5,1.5,0,0,0,.331.041h0a1.442,1.442,0,0,0,.331-.041l.03-.007a1.413,1.413,0,0,0,.292-.114l.054-.028c.016-.009.033-.016.05-.026l13.379-8.343a2.574,2.574,0,0,1,.04.433Zm0,0" fill="#5a6fa4"/>
      </g>
    </g>
  </g>
</svg>
