<svg xmlns="http://www.w3.org/2000/svg" width="35.517" height="35.526" viewBox="0 0 35.517 35.526">
  <g id="Group_688" data-name="Group 688" transform="translate(-86.876 -863.655)">
    <path id="Path_1516" data-name="Path 1516" d="M115.748,878.257a11.455,11.455,0,0,1,1.619-1,3.622,3.622,0,0,1,4.374,1.328,3.7,3.7,0,0,1-.273,4.546c-.281.321-.6.611-.9.914q-2.279,2.28-4.564,4.555a.856.856,0,0,0-.27.675q.014,3.023,0,6.046a3.688,3.688,0,0,1-3.006,3.789,4.528,4.528,0,0,1-.874.064q-10.551.005-21.1,0a3.676,3.676,0,0,1-3.874-3.858q-.008-13.906,0-27.812a3.669,3.669,0,0,1,3.846-3.848q8.3-.006,16.6-.006a1.272,1.272,0,0,1,.976.394q3.515,3.532,7.051,7.042a1.283,1.283,0,0,1,.4.978c-.008,1.942,0,3.884,0,5.826Zm-8.9-13.121h-.38q-7.858,0-15.716,0a2.208,2.208,0,0,0-2.393,2.4q0,13.887,0,27.774a2.21,2.21,0,0,0,2.4,2.395q10.55,0,21.1,0a2.212,2.212,0,0,0,2.4-2.392c0-1.514,0-3.029,0-4.544,0-.1-.016-.2-.029-.354-.138.132-.234.22-.327.313-1.3,1.295-2.583,2.6-3.893,3.878a1.967,1.967,0,0,1-.8.468c-1.782.508-3.571.988-5.36,1.472-.744.2-1.2-.263-1-1.01.486-1.789.967-3.578,1.476-5.361a1.861,1.861,0,0,1,.451-.768q4.609-4.64,9.234-9.264a.89.89,0,0,0,.242-.562c.017-2.223.011-4.446.01-6.669,0-.116-.009-.232-.015-.368h-3.593a3.735,3.735,0,0,1-3.8-3.808C106.842,867.552,106.848,866.369,106.848,865.137Zm2.38,28,9.333-9.334-3.015-3.006-9.333,9.334Zm10.549-10.417a2.409,2.409,0,0,0,1.092-2.459,2.055,2.055,0,0,0-1.623-1.7,2.4,2.4,0,0,0-2.582,1.044Zm-11.394-16.34a25.411,25.411,0,0,0,.025,2.907,1.853,1.853,0,0,0,1.646,1.69,23.491,23.491,0,0,0,2.963.029Zm-3.8,28.433,3.162-.869-2.292-2.338Z" transform="translate(0)" fill="#5a6fa4"/>
    <path id="Path_1517" data-name="Path 1517" d="M120.03,998.143c-.708,0-1.416,0-2.125,0a.724.724,0,0,1-.8-.791q-.01-2.162,0-4.323a.718.718,0,0,1,.769-.793q2.179-.023,4.359,0a.731.731,0,0,1,.789.815q.012,2.143,0,4.287a.738.738,0,0,1-.828.808C121.471,998.147,120.751,998.144,120.03,998.143Zm1.5-4.4H118.6v2.9h2.934Z" transform="translate(-27.265 -115.985)" fill="#5a6fa4"/>
    <path id="Path_1518" data-name="Path 1518" d="M120.092,908.93c.684,0,1.368,0,2.051,0,.615,0,.891.282.892.9q.005,2.052,0,4.1c0,.644-.275.918-.913.919q-2.051,0-4.1,0c-.642,0-.9-.27-.905-.92q0-2.052,0-4.1c0-.626.268-.9.889-.9C118.7,908.926,119.4,908.93,120.092,908.93Zm-1.481,4.425h2.919v-2.919h-2.919Z" transform="translate(-27.277 -40.843)" fill="#5a6fa4"/>
    <path id="Path_1519" data-name="Path 1519" d="M120.053,1081.518c-.7,0-1.392,0-2.088,0-.588-.005-.855-.269-.856-.85q-.005-2.106,0-4.213a.733.733,0,0,1,.827-.84q2.124-.009,4.248,0c.575,0,.842.278.844.865q.007,2.088,0,4.176a.752.752,0,0,1-.852.86C121.469,1081.523,120.761,1081.518,120.053,1081.518Zm1.483-1.5v-2.9h-2.923v2.9Z" transform="translate(-27.272 -191.212)" fill="#5a6fa4"/>
    <path id="Path_1520" data-name="Path 1520" d="M196.826,999.819c1.013,0,2.026,0,3.04,0a2.114,2.114,0,0,1,.473.037.682.682,0,0,1,.553.646.7.7,0,0,1-.477.741,1.76,1.76,0,0,1-.5.061q-3.076.006-6.152,0a2.078,2.078,0,0,1-.364-.021.73.73,0,0,1-.63-.739.707.707,0,0,1,.659-.706c.3-.03.609-.021.914-.021C195.166,999.818,196,999.819,196.826,999.819Z" transform="translate(-95.523 -122.838)" fill="#5a6fa4"/>
    <path id="Path_1521" data-name="Path 1521" d="M197.27,1084.7h-3.223a.678.678,0,0,1-.731-.437.968.968,0,0,1,.068-.711.83.83,0,0,1,.605-.313c2.2-.022,4.395-.017,6.592-.012a.715.715,0,0,1,.779.737.737.737,0,0,1-.794.732C199.468,1084.7,198.369,1084.7,197.27,1084.7Z" transform="translate(-95.99 -198.079)" fill="#5a6fa4"/>
    <path id="Path_1522" data-name="Path 1522" d="M196.787,918.012c-1.1,0-2.2,0-3.3,0a.7.7,0,0,1-.737-.539.652.652,0,0,1,.3-.792,1.267,1.267,0,0,1,.591-.139c.756-.015,1.513-.006,2.27-.006h3.918a2.725,2.725,0,0,1,.329.009.736.736,0,0,1,.692.758.711.711,0,0,1-.737.706c-.647.016-1.294.006-1.941.007h-1.392Z" transform="translate(-95.485 -47.702)" fill="#5a6fa4"/>
    <path id="Path_1523" data-name="Path 1523" d="M195.595,948.338c-.719,0-1.439,0-2.159,0a.727.727,0,0,1-.7-.441.615.615,0,0,1,.1-.746,1.009,1.009,0,0,1,.6-.272c1.451-.023,2.9-.017,4.353-.01a.734.734,0,0,1,.79.731.749.749,0,0,1-.793.737C197.058,948.345,196.326,948.338,195.595,948.338Z" transform="translate(-95.428 -75.063)" fill="#5a6fa4"/>
    <path id="Path_1524" data-name="Path 1524" d="M195.736,1030.1c.707,0,1.415,0,2.122,0a.741.741,0,1,1-.008,1.471q-2.122.007-4.244,0a.75.75,0,0,1-.838-.724c-.009-.449.319-.745.846-.748C194.321,1030.093,195.028,1030.1,195.736,1030.1Z" transform="translate(-95.528 -150.151)" fill="#5a6fa4"/>
    <path id="Path_1525" data-name="Path 1525" d="M195.724,1114.814c-.707,0-1.415,0-2.122,0a.743.743,0,0,1-.84-.718.758.758,0,0,1,.846-.755q2.1-.006,4.207,0a.765.765,0,0,1,.862.742c0,.439-.339.728-.868.731C197.115,1114.818,196.419,1114.814,195.724,1114.814Z" transform="translate(-95.523 -225.246)" fill="#5a6fa4"/>
  </g>
</svg>
