<svg xmlns="http://www.w3.org/2000/svg" xmlns:xlink="http://www.w3.org/1999/xlink" width="47.241" height="47.43" viewBox="0 0 47.241 47.43">
  <defs>
    <clipPath id="clip-path">
      <rect id="Rectangle_747" data-name="Rectangle 747" width="47.241" height="47.43" transform="translate(237.198 115.48)" fill="#5a6fa4"/>
    </clipPath>
  </defs>
  <g id="Group_1587" data-name="Group 1587" transform="translate(-237.198 -115.48)">
    <g id="Group_1586" data-name="Group 1586">
      <g id="Group_1585" data-name="Group 1585" clip-path="url(#clip-path)">
        <path id="Path_2683" data-name="Path 2683" d="M260.84,115.434a23.643,23.643,0,1,0,23.645,23.643,23.644,23.644,0,0,0-23.645-23.643Zm9.608,34.225v1.636a1.634,1.634,0,0,1-1.635,1.635H252.461a3.27,3.27,0,0,1-3.271-3.271V129.083a3.271,3.271,0,0,1,3.271-3.271h16.352a1.636,1.636,0,0,1,1.635,1.636Zm3.271-20.576v22.212a1.635,1.635,0,0,1-1.635,1.635h-.443a3.24,3.24,0,0,0,.443-1.635V127.448a3.243,3.243,0,0,0-.443-1.635h.443a1.635,1.635,0,0,1,1.635,1.635Zm0,0" fill="#5a6fa4"/>
      </g>
    </g>
    <path id="Path_2684" data-name="Path 2684" d="M264.875,141.524s-.616-.74-1.3-.229c-.509.38-1.422,1.225-1.642,1.431a18.3,18.3,0,0,1-2.431-1.558,12.79,12.79,0,0,1-2.7-3.234l-.351-.661c.122-.131,1.057-1.133,1.462-1.677.51-.682-.228-1.3-.228-1.3s-2.078-2.079-2.552-2.491a1.019,1.019,0,0,0-1.018-.184c-.995.643-2.027,1.2-2.088,3.891,0,2.518,1.909,5.113,3.974,7.124,2.07,2.269,4.912,4.545,7.659,4.541,2.689-.06,3.247-1.092,3.89-2.087a1.017,1.017,0,0,0-.183-1.018c-.412-.474-2.491-2.551-2.491-2.551Zm0,0" fill="#5a6fa4"/>
  </g>
</svg>
