<svg xmlns="http://www.w3.org/2000/svg" width="36.482" height="36.482" viewBox="0 0 36.482 36.482">
  <g id="Group_686" data-name="Group 686" transform="translate(-81.223 -150.957)">
    <path id="Path_1514" data-name="Path 1514" d="M117.7,184.161v.427a1.157,1.157,0,0,1-.78.49q-4.246,1.122-8.489,2.258c-.719.192-.942.064-1.128-.65q-3.323-12.75-6.647-25.5c-.165-.635-.337-1.268-.505-1.9l-.082.012v.453q0,13.359,0,26.718c0,.821-.151.97-.981.97H82.171c-.783,0-.948-.161-.948-.93q0-14.873,0-29.746c0-.775.169-.946.937-.946h8.793v-.424c0-1.211.005-2.422,0-3.634a.761.761,0,0,1,.462-.8h8.265a.966.966,0,0,1,.4.918c-.008,2.1,0,4.2,0,6.305,0,.12.013.239.019.337a3.846,3.846,0,0,1,.6-.286q4.378-1.18,8.76-2.342c.576-.153.831.006.985.595q3.317,12.715,6.634,25.429C117.272,182.666,117.494,183.412,117.7,184.161Zm-18.88-4.036V158.892h-6.63v21.234ZM82.462,160.093V178.3h8.471V160.093Zm20.525,5.188,3.526,13.527,7.941-2.12-3.525-13.525ZM82.453,186.21h8.468V182.6H82.453Zm19.632-24.382,7.946-2.118-.67-2.536-7.94,2.121Zm6.327,24.256,7.944-2.121-.666-2.534-7.939,2.118Zm6.974-5.831-.624-2.386-7.938,2.119.621,2.383Zm-16.55-25.67v-2.392H92.2v2.392Zm-.011,31.624v-2.383H92.194v2.383Zm-7.89-29.145H82.466v1.782h8.468Zm0,22.5h-8.48v1.779h8.48Zm1.257-21.938h6.642V155.84H92.19Zm10.49,6.483,7.939-2.122-.289-1.093-7.938,2.118ZM92.192,182.557h6.634v-1.169H92.192Z" fill="#5a6fa4"/>
    <path id="Path_1515" data-name="Path 1515" d="M116.031,300.414c-.748,0-1.5,0-2.243,0-.558,0-.785-.223-.787-.775q-.006-2.261,0-4.522c0-.558.217-.777.776-.779q2.261-.007,4.523,0c.573,0,.779.2.781.768q.009,2.261,0,4.523c0,.58-.218.784-.806.786C117.527,300.416,116.779,300.414,116.031,300.414Zm1.809-1.231v-3.607h-3.6v3.607Z" transform="translate(-29.349 -132.43)" fill="#5a6fa4"/>
  </g>
</svg>
