<svg xmlns="http://www.w3.org/2000/svg" width="39.303" height="43.157" viewBox="0 0 39.303 43.157">
  <g id="Group_689" data-name="Group 689" transform="translate(-693.622 -998.333)">
    <path id="Path_1526" data-name="Path 1526" d="M696.323,998.333c.108.061.259.1.313.189.107.181.268.434.212.583a.971.971,0,0,1-.523.515,1.853,1.853,0,0,0-1.438,1.967q0,15.212,0,30.424a1.82,1.82,0,0,0,1.964,1.974q7.586,0,15.173.006a.666.666,0,0,0,.556-.27c.714-.792,1.445-1.57,2.2-2.327q2.924-2.947,5.874-5.867a.893.893,0,0,0,.288-.7q-.012-7.058-.009-14.116a7.946,7.946,0,0,0-.072-1.049,1.66,1.66,0,0,0-1.828-1.636c-1.067-.018-2.135-.006-3.2-.009a3.108,3.108,0,0,1-3.317-3.322c0-1.011.006-2.023,0-3.034a1.722,1.722,0,0,0-1.73-2.006,7.023,7.023,0,0,0-1.007-.057q-4.994-.006-9.989,0c-.1,0-.2,0-.3,0-.357.017-.682-.032-.83-.421s.093-.628.365-.844h11.971c.808.165,1.63.279,2.421.5a12.155,12.155,0,0,1,8.721,10.618c.04.489.061.981.061,1.472q.007,6.236,0,12.473v.542c.166-.153.278-.248.38-.351q1.983-1.98,3.964-3.962a2.315,2.315,0,0,1,3.589-.009c.676.674,1.356,1.346,2.026,2.026a2.286,2.286,0,0,1,.012,3.408q-4.521,4.538-9.058,9.059c-.353.352-.716.39-1,.121s-.249-.661.116-1.027q1.994-2,4-3.99a4.594,4.594,0,0,1,.433-.345l-3.725-3.706-7.21,7.21,3.683,3.64c.117-.113.3-.3.49-.475a.636.636,0,1,1,.89.893,30.154,30.154,0,0,1-2.228,2.178,11.863,11.863,0,0,1-2.294,1.459c-.992.485-2.05.837-3.083,1.239a2.13,2.13,0,0,1-2.789-2.811q.536-1.371,1.075-2.741c.06-.154.114-.309.186-.505h-.537q-7.144,0-14.287,0a3.073,3.073,0,0,1-3.164-2.582,4.288,4.288,0,0,1-.043-.755q0-15.106,0-30.213a3.075,3.075,0,0,1,2.547-3.321.265.265,0,0,0,.069-.045Zm23.933,8.6c-.37-2.445-4.458-6.5-6.631-6.653.049.575.127,1.159.142,1.744.024.954,0,1.91.009,2.865a1.819,1.819,0,0,0,1.782,1.865A29.052,29.052,0,0,1,720.255,1006.931Zm-1.916,30.153-3.726-3.733a6.913,6.913,0,0,0-1.97,2.911,6.3,6.3,0,0,1,2.8,2.8A7.127,7.127,0,0,0,718.339,1037.083Zm11.577-11.557c.475-.478.959-.946,1.42-1.435a.97.97,0,0,0,.053-1.4c-.771-.814-1.568-1.606-2.379-2.38a.955.955,0,0,0-1.308-.025c-.53.494-1.02,1.03-1.506,1.527Zm-6.016-1.417,3.667,3.671,1.311-1.272-3.686-3.687Zm-9.673,15.431a4.032,4.032,0,0,0-2.087-2.038c-.2.517-.419,1.032-.609,1.557a.808.808,0,0,0,.187.895.772.772,0,0,0,.844.225C713.114,1039.982,713.657,1039.761,714.228,1039.541Z" fill="#5a6fa4"/>
    <path id="Path_1527" data-name="Path 1527" d="M759.563,1089.053c-.192.171-.358.411-.583.5a.554.554,0,0,1-.73-.394c-.266-.678-.533-1.357-.766-2.046a.476.476,0,0,0-.544-.375q-2.695.02-5.39,0a.449.449,0,0,0-.506.363c-.23.661-.489,1.313-.744,1.965-.175.448-.515.625-.882.476-.342-.139-.463-.488-.3-.924q2.135-5.618,4.275-11.234a.9.9,0,0,1,.864-.674.88.88,0,0,1,.9.686q2.12,5.6,4.233,11.2c.044.117.07.241.1.362Zm-2.714-3.6-2.533-6.705-.1.021-2.543,6.684Z" transform="translate(-49.186 -69.549)" fill="#5a6fa4"/>
    <path id="Path_1528" data-name="Path 1528" d="M799.644,1231.109l.773.051c1.745.122,2.137,1.4,1.822,2.7a2.6,2.6,0,0,1-3.169,2.034,2.869,2.869,0,0,1-1.9-3.436,1.7,1.7,0,0,1,1.489-1.247C799,1231.149,799.352,1231.136,799.644,1231.109Zm-1.307,2.017a1.614,1.614,0,0,0,.883,1.472,1.171,1.171,0,0,0,1.356-.258,1.646,1.646,0,0,0,.433-1.583.612.612,0,0,0-.423-.282c-.571-.034-1.145-.033-1.717-.014C798.463,1232.475,798.321,1232.747,798.337,1233.126Z" transform="translate(-91.802 -206.57)" fill="#5a6fa4"/>
    <path id="Path_1529" data-name="Path 1529" d="M847.983,1107.1c.452,0,.856-.006,1.26,0,.475.009.745.233.759.609s-.269.64-.758.651c-.4.009-.808,0-1.26,0,0,.475,0,.905,0,1.335-.007.451-.258.736-.633.733s-.62-.288-.628-.743c-.007-.42,0-.839,0-1.326-.466,0-.91,0-1.353,0a.616.616,0,0,1-.685-.493c-.092-.423.181-.739.663-.764.224-.012.449,0,.673,0h.7c0-.453,0-.856,0-1.26.006-.464.238-.74.617-.75.4-.01.64.27.646.758C847.986,1106.252,847.983,1106.655,847.983,1107.1Z" transform="translate(-134.037 -94.74)" fill="#5a6fa4"/>
    <path id="Path_1530" data-name="Path 1530" d="M760.072,1228.006c0,.168.011.337,0,.5a.624.624,0,0,1-1.244.033,6.63,6.63,0,0,1,0-1.132.6.6,0,0,1,.624-.564.615.615,0,0,1,.618.613C760.083,1227.641,760.072,1227.824,760.072,1228.006Z" transform="translate(-57.842 -202.788)" fill="#5a6fa4"/>
    <path id="Path_1531" data-name="Path 1531" d="M870.955,1227.994a5.58,5.58,0,0,1,0-.587.57.57,0,0,1,.556-.533.529.529,0,0,1,.63.431,5.91,5.91,0,0,1,.008,1.373.533.533,0,0,1-.655.447.562.562,0,0,1-.541-.543c-.019-.194,0-.391,0-.587Z" transform="translate(-157.363 -202.809)" fill="#5a6fa4"/>
  </g>
</svg>
