<svg xmlns="http://www.w3.org/2000/svg" width="47.06" height="47.06" viewBox="0 0 47.06 47.06">
  <path id="Path_2681" data-name="Path 2681" d="M260.91,236.92a23.53,23.53,0,1,0,23.53,23.52,23.53,23.53,0,0,0-23.53-23.52Zm-11.28,34.75,5.57-9a18.3,18.3,0,0,0,3.4,3.41ZM271.68,257a2.59,2.59,0,0,1-2.72.27l-3,3c1.5,2.43,1.86,4.81.69,6a2.69,2.69,0,0,1-1.94.7,9.29,9.29,0,0,1-5.14-2.13l-.12-.1-.39-.3-.15-.13-.36-.32a.86.86,0,0,1-.14-.13c-.17-.15-.33-.3-.49-.47s-.36-.37-.53-.55l-.31-.36c-.05-.06-.11-.12-.16-.19s-.26-.31-.38-.47l-.05-.06c-2.12-2.8-2.8-5.74-1.45-7.09a2.65,2.65,0,0,1,1.94-.7,8.21,8.21,0,0,1,4.05,1.38l3-3a2.61,2.61,0,0,1,.27-2.72c1.11-1.11,3.66-.36,5.7,1.68s2.79,4.59,1.68,5.7Zm0,0" transform="translate(-237.38 -236.92)" fill="#5a6fa4"/>
</svg>
