<svg xmlns="http://www.w3.org/2000/svg" xmlns:xlink="http://www.w3.org/1999/xlink" width="425.197" height="425.196" viewBox="0 0 425.197 425.196">
  <defs>
    <radialGradient id="radial-gradient" cx="0.5" cy="0.5" r="0.5" gradientTransform="translate(0)" gradientUnits="objectBoundingBox">
      <stop offset="0.024" stop-color="#72becd"/>
      <stop offset="0.223" stop-color="#6dbccb"/>
      <stop offset="0.45" stop-color="#5fb8c6"/>
      <stop offset="0.691" stop-color="#48b2bd"/>
      <stop offset="0.939" stop-color="#29a9b2"/>
      <stop offset="1" stop-color="#20a7af"/>
    </radialGradient>
  </defs>
  <g id="Group_1649" data-name="Group 1649" transform="translate(0.002 0)">
    <path id="Path_2818" data-name="Path 2818" d="M212.6,0h0C330.014,0,425.2,95.183,425.2,212.6S330.014,425.2,212.6,425.2h0C95.183,425.2,0,330.013,0,212.6S95.183,0,212.6,0Z" transform="translate(-0.002 0.001)" fill="none"/>
    <g id="Group_1648" data-name="Group 1648">
      <g id="Group_1588" data-name="Group 1588">
        <path id="Path_2685" data-name="Path 2685" d="M66.537,250.568l-3.885.953c.436,1.775.913,3.578,1.42,5.358l3.848-1.1C67.426,254.05,66.961,252.295,66.537,250.568Z" fill="#5a6fa4" stroke="#707070" stroke-linejoin="bevel" stroke-width="1"/>
        <path id="Path_2686" data-name="Path 2686" d="M63.181,196.981l-3.975-.456c-.21,1.838-.391,3.693-.535,5.513l3.988.316C62.8,200.58,62.975,198.773,63.181,196.981Z" fill="#5a6fa4" stroke="#707070" stroke-linejoin="bevel" stroke-width="1"/>
        <path id="Path_2687" data-name="Path 2687" d="M62.234,218.536l-4,.106c.049,1.836.131,3.7.245,5.534l3.993-.247C62.363,222.139,62.282,220.324,62.234,218.536Z" fill="#5a6fa4" stroke="#707070" stroke-linejoin="bevel" stroke-width="1"/>
        <path id="Path_2688" data-name="Path 2688" d="M64.34,240l-3.944.673c.311,1.818.658,3.649,1.031,5.444l3.916-.814C64.98,243.558,64.642,241.774,64.34,240Z" fill="#5a6fa4" stroke="#707070" stroke-linejoin="bevel" stroke-width="1"/>
        <path id="Path_2689" data-name="Path 2689" d="M62.9,229.308l-3.98.39c.18,1.836.394,3.686.637,5.5l3.965-.531C63.289,232.9,63.08,231.1,62.9,229.308Z" fill="#5a6fa4" stroke="#707070" stroke-linejoin="bevel" stroke-width="1"/>
        <path id="Path_2690" data-name="Path 2690" d="M62.327,207.74l-4-.174c-.08,1.838-.129,3.7-.145,5.537l4,.034C62.2,211.348,62.249,209.532,62.327,207.74Z" fill="#5a6fa4" stroke="#707070" stroke-linejoin="bevel" stroke-width="1"/>
        <path id="Path_2691" data-name="Path 2691" d="M64.8,186.313l-3.932-.741c-.339,1.8-.651,3.639-.929,5.461l3.956.6C64.165,189.858,64.47,188.068,64.8,186.313Z" fill="#5a6fa4" stroke="#707070" stroke-linejoin="bevel" stroke-width="1"/>
        <path id="Path_2692" data-name="Path 2692" d="M66,175.475l-2.684-.709c-.47,1.78-.915,3.591-1.319,5.38l3.9.883c.393-1.736.823-3.492,1.28-5.22Q66.58,175.668,66,175.475Z" fill="#5a6fa4" stroke="#707070" stroke-linejoin="bevel" stroke-width="1"/>
        <path id="Path_2693" data-name="Path 2693" d="M102.436,316.986a13.768,13.768,0,0,1-2.364,3.328c.874.933,1.761,1.862,2.661,2.776l2.85-2.807C104.514,319.2,103.463,318.092,102.436,316.986Z" fill="#5a6fa4" stroke="#707070" stroke-linejoin="bevel" stroke-width="1"/>
        <path id="Path_2694" data-name="Path 2694" d="M106.695,326.965c1.336,1.263,2.714,2.519,4.1,3.733l2.642-3c-1.345-1.183-2.688-2.406-3.991-3.636Z" fill="#5a6fa4" stroke="#707070" stroke-linejoin="bevel" stroke-width="1"/>
        <path id="Path_2695" data-name="Path 2695" d="M115.015,334.282c1.419,1.162,2.883,2.317,4.352,3.433l2.42-3.184c-1.431-1.088-2.856-2.213-4.239-3.345Z" fill="#5a6fa4" stroke="#707070" stroke-linejoin="bevel" stroke-width="1"/>
        <path id="Path_2696" data-name="Path 2696" d="M70.378,263.6q-.456-1.323-.887-2.651l-3.805,1.232c.242.746.494,1.494.748,2.239A12.407,12.407,0,0,1,70.378,263.6Z" fill="#5a6fa4" stroke="#707070" stroke-linejoin="bevel" stroke-width="1"/>
        <path id="Path_2697" data-name="Path 2697" d="M363.082,200.894l3.984-.353c-.161-1.82-.359-3.674-.588-5.509l-3.969.5C362.732,197.316,362.925,199.121,363.082,200.894Z" fill="#5a6fa4" stroke="#707070" stroke-linejoin="bevel" stroke-width="1"/>
        <path id="Path_2698" data-name="Path 2698" d="M363.657,211.673l4-.07c-.032-1.828-.1-3.691-.2-5.538l-3.994.213C363.561,208.078,363.626,209.893,363.657,211.673Z" fill="#5a6fa4" stroke="#707070" stroke-linejoin="bevel" stroke-width="1"/>
        <path id="Path_2699" data-name="Path 2699" d="M123.84,340.991c1.5,1.06,3.047,2.109,4.589,3.115l2.187-3.349c-1.5-.981-3.007-2-4.47-3.034Z" fill="#5a6fa4" stroke="#707070" stroke-linejoin="bevel" stroke-width="1"/>
        <path id="Path_2700" data-name="Path 2700" d="M359.637,179.6l3.892-.917c-.416-1.77-.878-3.577-1.371-5.371l-3.857,1.062C358.781,176.122,359.23,177.88,359.637,179.6Z" fill="#5a6fa4" stroke="#707070" stroke-linejoin="bevel" stroke-width="1"/>
        <path id="Path_2701" data-name="Path 2701" d="M361.741,190.188l3.949-.639c-.294-1.82-.625-3.655-.982-5.453l-3.924.78C361.133,186.627,361.455,188.414,361.741,190.188Z" fill="#5a6fa4" stroke="#707070" stroke-linejoin="bevel" stroke-width="1"/>
        <path id="Path_2702" data-name="Path 2702" d="M128.425,89.586l-2.246-3.311c-1.521,1.032-3.042,2.1-4.523,3.187l2.361,3.229C125.461,91.635,126.943,90.59,128.425,89.586Z" fill="#5a6fa4" stroke="#707070" stroke-linejoin="bevel" stroke-width="1"/>
        <path id="Path_2703" data-name="Path 2703" d="M103.775,110.467l-2.9-2.76c-1.271,1.334-2.532,2.707-3.75,4.08l2.992,2.654C101.308,113.1,102.537,111.767,103.775,110.467Z" fill="#5a6fa4" stroke="#707070" stroke-linejoin="bevel" stroke-width="1"/>
        <path id="Path_2704" data-name="Path 2704" d="M111.493,102.923,108.8,99.965c-1.364,1.242-2.719,2.52-4.029,3.8l2.795,2.861C108.843,105.379,110.164,104.133,111.493,102.923Z" fill="#5a6fa4" stroke="#707070" stroke-linejoin="bevel" stroke-width="1"/>
        <path id="Path_2705" data-name="Path 2705" d="M311.9,95.47c-1.416-1.179-2.87-2.346-4.321-3.471l-2.449,3.164c1.414,1.094,2.831,2.232,4.21,3.381Z" fill="#5a6fa4" stroke="#707070" stroke-linejoin="bevel" stroke-width="1"/>
        <path id="Path_2706" data-name="Path 2706" d="M119.723,95.951l-2.477-3.141c-1.449,1.142-2.891,2.32-4.286,3.5l2.586,3.051C116.9,98.213,118.311,97.064,119.723,95.951Z" fill="#5a6fa4" stroke="#707070" stroke-linejoin="bevel" stroke-width="1"/>
        <path id="Path_2707" data-name="Path 2707" d="M320.156,102.86c-1.328-1.277-2.694-2.544-4.061-3.768l-2.668,2.981c1.332,1.192,2.664,2.427,3.958,3.671Z" fill="#5a6fa4" stroke="#707070" stroke-linejoin="bevel" stroke-width="1"/>
        <path id="Path_2708" data-name="Path 2708" d="M324.057,111.338h3.228l.58-.523c-1.231-1.365-2.5-2.726-3.784-4.046l-2.871,2.784c.96.99,1.91,2.007,2.847,3.028Z" fill="#5a6fa4" stroke="#707070" stroke-linejoin="bevel" stroke-width="1"/>
        <path id="Path_2709" data-name="Path 2709" d="M289.446,344.361l2.034,3.445c1.585-.937,3.17-1.911,4.711-2.9l-2.154-3.37C292.535,342.5,290.991,343.449,289.446,344.361Z" fill="#5a6fa4" stroke="#707070" stroke-linejoin="bevel" stroke-width="1"/>
        <path id="Path_2710" data-name="Path 2710" d="M303.135,88.685c-1.486-1.067-3.02-2.129-4.561-3.155l-2.217,3.329c1.5,1,3,2.034,4.442,3.074Z" fill="#5a6fa4" stroke="#707070" stroke-linejoin="bevel" stroke-width="1"/>
        <path id="Path_2711" data-name="Path 2711" d="M307.171,332.112l2.5,3.12c1.438-1.154,2.871-2.345,4.256-3.539l-2.612-3.03C309.97,329.826,308.574,330.987,307.171,332.112Z" fill="#5a6fa4" stroke="#707070" stroke-linejoin="bevel" stroke-width="1"/>
        <path id="Path_2712" data-name="Path 2712" d="M316.049,324.393c-.238.224-.469.454-.707.675L318.06,328c.442-.408.868-.832,1.3-1.247A12.724,12.724,0,0,1,316.049,324.393Z" fill="#5a6fa4" stroke="#707070" stroke-linejoin="bevel" stroke-width="1"/>
        <path id="Path_2713" data-name="Path 2713" d="M298.525,338.556l2.275,3.29c1.508-1.043,3.02-2.128,4.5-3.227l-2.389-3.208C301.469,336.482,299.994,337.54,298.525,338.556Z" fill="#5a6fa4" stroke="#707070" stroke-linejoin="bevel" stroke-width="1"/>
        <path id="Path_2714" data-name="Path 2714" d="M284.248,77.069c-1.632-.849-3.3-1.68-4.97-2.472l-1.717,3.612c1.623.771,3.252,1.582,4.841,2.409Z" fill="#5a6fa4" stroke="#707070" stroke-linejoin="bevel" stroke-width="1"/>
        <path id="Path_2715" data-name="Path 2715" d="M293.9,82.54c-1.56-.961-3.168-1.91-4.776-2.822l-1.973,3.48c1.568.888,3.132,1.813,4.652,2.748Z" fill="#5a6fa4" stroke="#707070" stroke-linejoin="bevel" stroke-width="1"/>
        <path id="Path_2716" data-name="Path 2716" d="M270.179,353.944l1.519,3.7c1.694-.7,3.4-1.434,5.073-2.191l-1.653-3.644C273.49,352.548,271.828,353.267,270.179,353.944Z" fill="#5a6fa4" stroke="#707070" stroke-linejoin="bevel" stroke-width="1"/>
        <path id="Path_2717" data-name="Path 2717" d="M279.98,349.5l1.782,3.581c1.648-.82,3.3-1.678,4.9-2.551l-1.908-3.514C283.192,347.865,281.585,348.7,279.98,349.5Z" fill="#5a6fa4" stroke="#707070" stroke-linejoin="bevel" stroke-width="1"/>
        <path id="Path_2718" data-name="Path 2718" d="M361.3,241.287l3.937.707c.323-1.8.62-3.642.881-5.469l-3.959-.566C361.9,237.739,361.615,239.531,361.3,241.287Z" fill="#5a6fa4" stroke="#707070" stroke-linejoin="bevel" stroke-width="1"/>
        <path id="Path_2719" data-name="Path 2719" d="M359.012,251.832l3.875.988c.455-1.782.883-3.6,1.272-5.392l-3.908-.848C359.871,248.328,359.454,250.1,359.012,251.832Z" fill="#5a6fa4" stroke="#707070" stroke-linejoin="bevel" stroke-width="1"/>
        <path id="Path_2720" data-name="Path 2720" d="M362.826,230.6l3.979.422c.194-1.839.358-3.695.487-5.517l-3.99-.282C363.177,227,363.017,228.813,362.826,230.6Z" fill="#5a6fa4" stroke="#707070" stroke-linejoin="bevel" stroke-width="1"/>
        <path id="Path_2721" data-name="Path 2721" d="M363.683,214.441c0,1.79-.033,3.606-.1,5.4l4,.14c.064-1.839.1-3.7.1-5.538Z" fill="#5a6fa4" stroke="#707070" stroke-linejoin="bevel" stroke-width="1"/>
        <path id="Path_2722" data-name="Path 2722" d="M274.221,72.3c-1.694-.731-3.422-1.441-5.137-2.109l-1.453,3.726c1.671.652,3.354,1.343,5,2.055Z" fill="#5a6fa4" stroke="#707070" stroke-linejoin="bevel" stroke-width="1"/>
        <path id="Path_2723" data-name="Path 2723" d="M355.967,262.186l3.795,1.264c.583-1.75,1.14-3.529,1.658-5.286l-3.838-1.129C357.078,258.747,356.535,260.48,355.967,262.186Z" fill="#5a6fa4" stroke="#707070" stroke-linejoin="bevel" stroke-width="1"/>
        <path id="Path_2724" data-name="Path 2724" d="M163.285,361.057c1.732.587,3.508,1.152,5.28,1.682l1.145-3.832c-1.726-.516-3.455-1.067-5.142-1.638Z" fill="#5a6fa4" stroke="#707070" stroke-linejoin="bevel" stroke-width="1"/>
        <path id="Path_2725" data-name="Path 2725" d="M152.9,357.117c1.694.714,3.429,1.408,5.159,2.065l1.418-3.741c-1.684-.638-3.373-1.315-5.022-2.009Z" fill="#5a6fa4" stroke="#707070" stroke-linejoin="bevel" stroke-width="1"/>
        <path id="Path_2726" data-name="Path 2726" d="M135.551,80.4c-1.59.919-3.184,1.88-4.738,2.854l2.127,3.389c1.513-.949,3.065-1.885,4.615-2.782Z" fill="#5a6fa4" stroke="#707070" stroke-linejoin="bevel" stroke-width="1"/>
        <path id="Path_2727" data-name="Path 2727" d="M178.947,361.33c-1.351-.312-2.707-.626-4.039-.973l-1.006,3.872c1.409.365,2.838.709,4.266,1.037A11,11,0,0,1,178.947,361.33Z" fill="#5a6fa4" stroke="#707070" stroke-linejoin="bevel" stroke-width="1"/>
        <path id="Path_2728" data-name="Path 2728" d="M176.511,64c-1.793.434-3.6.9-5.361,1.4l1.079,3.852c1.717-.48,3.474-.939,5.221-1.36Z" fill="#5a6fa4" stroke="#707070" stroke-linejoin="bevel" stroke-width="1"/>
        <path id="Path_2729" data-name="Path 2729" d="M165.844,66.987c-1.754.559-3.52,1.158-5.248,1.779l1.353,3.764c1.683-.6,3.4-1.188,5.11-1.733Z" fill="#5a6fa4" stroke="#707070" stroke-linejoin="bevel" stroke-width="1"/>
        <path id="Path_2730" data-name="Path 2730" d="M145.313,75.207c-1.647.8-3.3,1.645-4.925,2.507l1.877,3.532c1.58-.84,3.194-1.662,4.8-2.442Z" fill="#5a6fa4" stroke="#707070" stroke-linejoin="bevel" stroke-width="1"/>
        <path id="Path_2731" data-name="Path 2731" d="M133.126,347.055c1.571.948,3.187,1.883,4.8,2.78l1.941-3.5c-1.573-.874-3.146-1.784-4.677-2.708Z" fill="#5a6fa4" stroke="#707070" stroke-linejoin="bevel" stroke-width="1"/>
        <path id="Path_2732" data-name="Path 2732" d="M260.055,357.683l1.25,3.8c1.754-.577,3.514-1.191,5.23-1.825L265.15,355.9C263.479,356.522,261.764,357.12,260.055,357.683Z" fill="#5a6fa4" stroke="#707070" stroke-linejoin="bevel" stroke-width="1"/>
        <path id="Path_2733" data-name="Path 2733" d="M155.415,70.732c-1.708.685-3.421,1.408-5.09,2.147l1.619,3.657c1.626-.72,3.295-1.424,4.959-2.091Z" fill="#5a6fa4" stroke="#707070" stroke-linejoin="bevel" stroke-width="1"/>
        <path id="Path_2734" data-name="Path 2734" d="M142.83,352.44c1.639.835,3.318,1.652,4.991,2.43l1.686-3.628c-1.63-.757-3.266-1.553-4.862-2.366Z" fill="#5a6fa4" stroke="#707070" stroke-linejoin="bevel" stroke-width="1"/>
        <path id="Path_2735" data-name="Path 2735" d="M253.267,65c-1.778-.478-3.585-.931-5.375-1.344l-.9,3.9c1.742.4,3.5.843,5.236,1.308Z" fill="#5a6fa4" stroke="#707070" stroke-linejoin="bevel" stroke-width="1"/>
        <path id="Path_2736" data-name="Path 2736" d="M249.69,360.681l.971,3.88c1.779-.446,3.579-.932,5.35-1.443l-1.112-3.843C253.175,359.774,251.423,360.247,249.69,360.681Z" fill="#5a6fa4" stroke="#707070" stroke-linejoin="bevel" stroke-width="1"/>
        <path id="Path_2737" data-name="Path 2737" d="M263.871,68.271c-1.738-.605-3.515-1.189-5.28-1.733l-1.18,3.822c1.721.531,3.451,1.1,5.144,1.689Z" fill="#5a6fa4" stroke="#707070" stroke-linejoin="bevel" stroke-width="1"/>
      </g>
      <circle id="Ellipse_46" data-name="Ellipse 46" cx="94.533" cy="94.533" r="94.533" transform="translate(89.417 163.281) rotate(-22.5)" fill="rgba(0,0,0,0)" stroke="#5a6fa4" stroke-miterlimit="10" stroke-width="4" stroke-dasharray="6"/>
      <g id="Group_1594" data-name="Group 1594">
        <path id="Path_2738" data-name="Path 2738" d="M111.191,297.38A34.532,34.532,0,1,1,76.66,262.848,34.532,34.532,0,0,1,111.191,297.38Z" fill="rgba(0,0,0,0)" stroke="#5a6fa4" stroke-miterlimit="10" stroke-width="2"/>
        <g id="Group_1593" data-name="Group 1593">
          <g id="Group_1590" data-name="Group 1590">
            <g id="Group_1589" data-name="Group 1589">
              <path id="Path_2739" data-name="Path 2739" d="M92.058,309.613A4.707,4.707,0,0,0,88.4,306.55l-6.364-1.826-.041.071-2.176-2.024-.009.006v-1.59a5.37,5.37,0,0,0,2.641-3.09c.06-.238.118-.463.174-.68h0s.2-.712.426-1.669c1.448.2,1.5-3.4,1.5-3.4a.7.7,0,0,0-.8-.479c.008-.1.012-.2.012-.295,0,0,2.765-11.537-7.711-11.17,0,0-3.818.553-4.186,2.666a2.973,2.973,0,0,0-2.094,2.254,31.084,31.084,0,0,0-.232,6.588.739.739,0,0,0-1,.436s.158,3.621,1.631,3.394c.113.413.242.822.391,1.221.087.349.184.722.288,1.13a5.358,5.358,0,0,0,2.642,3.09v1.487l-.017-.009L71,304.961,64.92,306.55a4.7,4.7,0,0,0-3.658,3.063l-1.274,4.746H93.33Z" fill="#5a6fa4"/>
            </g>
          </g>
          <g id="Group_1591" data-name="Group 1591">
            <path id="Path_2740" data-name="Path 2740" d="M64.817,306.072l4.739-1.236c-.157-.04-.253-.056-.253-.056l-5.049-1.449-.033.058-1.726-1.606-.009,0v-1.261a4.243,4.243,0,0,0,2.1-2.452c.049-.187.094-.367.139-.539h0s.156-.565.338-1.324c1.148.162,1.187-2.693,1.187-2.693a.554.554,0,0,0-.635-.381c0-.082.008-.161.008-.234,0,0,2.194-9.153-6.117-8.862,0,0-3.028.438-3.319,2.115a2.357,2.357,0,0,0-1.663,1.787,24.652,24.652,0,0,0-.184,5.229.583.583,0,0,0-.791.346s.125,2.871,1.293,2.691c.091.328.191.652.308.969.072.277.147.574.23.9a4.247,4.247,0,0,0,2.1,2.452V301.7l-.015-.006L55.5,303.52l-4.827,1.26a3.735,3.735,0,0,0-2.9,2.431l-1.009,3.765H60.392l.4-1.489A5.138,5.138,0,0,1,64.817,306.072Z" fill="#5a6fa4"/>
          </g>
          <g id="Group_1592" data-name="Group 1592">
            <path id="Path_2741" data-name="Path 2741" d="M93.273,310.976h13.285l-1.012-3.765a3.734,3.734,0,0,0-2.9-2.431L97.6,303.331l-.035.058-1.723-1.606-.01,0v-1.261a4.254,4.254,0,0,0,2.1-2.452c.05-.187.093-.367.137-.539h0s.158-.565.338-1.324c1.149.162,1.189-2.693,1.189-2.693a.554.554,0,0,0-.635-.381c0-.082.009-.161.009-.234,0,0,2.192-9.153-6.118-8.862,0,0-3.029.438-3.321,2.115a2.359,2.359,0,0,0-1.662,1.787,24.615,24.615,0,0,0-.183,5.229.583.583,0,0,0-.791.346s.125,2.871,1.294,2.691c.089.328.19.652.307.969.071.277.148.574.231.9a4.25,4.25,0,0,0,2.094,2.452V301.7L90.8,301.7l-1.958,1.821-4.825,1.26-.011,0,4.5,1.292a5.124,5.124,0,0,1,4.016,3.407l.4,1.5h.345Z" fill="#5a6fa4"/>
          </g>
        </g>
      </g>
      <g id="Group_1596" data-name="Group 1596">
        <path id="Path_2742" data-name="Path 2742" d="M247.462,360.982a34.532,34.532,0,1,1-34.531-34.532A34.532,34.532,0,0,1,247.462,360.982Z" fill="rgba(0,0,0,0)" stroke="#5a6fa4" stroke-miterlimit="10" stroke-width="2"/>
        <g id="Group_1595" data-name="Group 1595">
          <path id="Path_2743" data-name="Path 2743" d="M219.023,362.426l-6.113,5.344-6.084-5.6-12.9,13.5h38.215a1.855,1.855,0,0,0,.625-.111Z" fill="#5a6fa4"/>
          <path id="Path_2744" data-name="Path 2744" d="M221.149,360.566l12.867,12.3V349.318Z" fill="#5a6fa4"/>
          <path id="Path_2745" data-name="Path 2745" d="M212.95,364.411l20.306-17.749a1.869,1.869,0,0,0-1.114-.369H193.721a1.878,1.878,0,0,0-.415.047Z" fill="#5a6fa4"/>
          <path id="Path_2746" data-name="Path 2746" d="M191.846,348.4v25.382l12.909-13.508Z" fill="#5a6fa4"/>
        </g>
      </g>
      <g id="Group_1598" data-name="Group 1598">
        <path id="Path_2747" data-name="Path 2747" d="M373.6,142.455a34.533,34.533,0,1,1-34.532-34.531A34.532,34.532,0,0,1,373.6,142.455Z" fill="rgba(0,0,0,0)" stroke="#5a6fa4" stroke-miterlimit="10" stroke-width="2"/>
        <g id="Group_1597" data-name="Group 1597">
          <path id="Path_2748" data-name="Path 2748" d="M357.474,123.325H319.925a1.689,1.689,0,0,0-1.69,1.689v26.228a1.689,1.689,0,0,0,1.69,1.69h37.549a1.69,1.69,0,0,0,1.689-1.69V125.014A1.69,1.69,0,0,0,357.474,123.325Zm-1.328,26.509H321.253V125.855h34.893Z" fill="#5a6fa4"/>
          <rect id="Rectangle_749" data-name="Rectangle 749" width="31.922" height="21.472" transform="translate(322.737 127.108)" fill="#5a6fa4"/>
          <rect id="Rectangle_750" data-name="Rectangle 750" width="53.227" height="1.252" transform="translate(312.456 160.332)" fill="#5a6fa4"/>
          <path id="Path_2749" data-name="Path 2749" d="M359.163,154.128H318.235l-5.779,5.188h53.227Zm-40.43.716h40.328l2.3,1.879H316.774Zm13.549,3.77,1.131-1.486h11.213l1.23,1.486Z" fill="#5a6fa4"/>
        </g>
      </g>
      <g id="Group_1599" data-name="Group 1599">
        <circle id="Ellipse_47" data-name="Ellipse 47" cx="34.531" cy="34.531" r="34.531" transform="matrix(0.23, -0.973, 0.973, 0.23, 171.389, 88.195)" fill="rgba(0,0,0,0)" stroke="#5a6fa4" stroke-miterlimit="10" stroke-width="2"/>
        <path id="Path_2750" data-name="Path 2750" d="M223.166,42.516H202.7a2.237,2.237,0,0,0-2.236,2.238V80.289a2.236,2.236,0,0,0,2.236,2.237h20.47a2.237,2.237,0,0,0,2.236-2.237V44.754A2.238,2.238,0,0,0,223.166,42.516ZM215.9,80.734h-5.929a.728.728,0,0,1,0-1.455H215.9a.728.728,0,0,1,0,1.455Zm5.34-5.023H204.626V46.168h16.609Zm1.6,1.67H203.021V44.734H222.84Z" fill="#5a6fa4"/>
      </g>
      <g id="Group_1601" data-name="Group 1601">
        <path id="Path_2751" data-name="Path 2751" d="M111.19,142.455a34.531,34.531,0,1,1-34.531-34.531A34.531,34.531,0,0,1,111.19,142.455Z" fill="rgba(0,0,0,0)" stroke="#5a6fa4" stroke-miterlimit="10" stroke-width="2"/>
        <g id="Group_1600" data-name="Group 1600">
          <path id="Path_2752" data-name="Path 2752" d="M88.89,154.178h5.82l-.537.677a20.544,20.544,0,0,1-7.487,5.848,21.838,21.838,0,0,1-9.265,2.034A18.217,18.217,0,0,1,64,157.342q-5.4-5.4-5.4-14.266a22.462,22.462,0,0,1,5.03-14.859q5.026-6.043,13.984-6.045a16.559,16.559,0,0,1,8.756,2.062q7.939,4.858,7.939,14.915a18.013,18.013,0,0,1-3.164,10.339q-3.588,5.254-9.041,5.254a3.639,3.639,0,0,1-3.785-2.344,10.886,10.886,0,0,1-2.344,1.723,6.437,6.437,0,0,1-2.91.621,6.941,6.941,0,0,1-6.131-3.219,12.235,12.235,0,0,1-1.863-6.978,19.854,19.854,0,0,1,2.483-9.774Q70.518,129.4,75.4,129.4a6.134,6.134,0,0,1,5.077,2.623l.3-1.888h5.348L83.044,149.6q0,.48.424.48A4.764,4.764,0,0,0,86.8,148.3a12.375,12.375,0,0,0,2.146-3.221,13.92,13.92,0,0,0,1.159-5.933,12.727,12.727,0,0,0-3.375-9.2,11.932,11.932,0,0,0-9.026-3.516,14.044,14.044,0,0,0-10.691,4.449q-4.2,4.449-4.2,11.963,0,6.864,3.813,11.158A13.662,13.662,0,0,0,77.394,158.5a17.619,17.619,0,0,0,11.384-4.209Zm-10.875-9.266a26.768,26.768,0,0,0,.961-6.865,5.956,5.956,0,0,0-.594-2.8,2.394,2.394,0,0,0-2.26-1.44q-2.883,0-4.379,4.858a23.946,23.946,0,0,0-1.074,7.176,7,7,0,0,0,.623,3.05,2.569,2.569,0,0,0,2.373,1.695,3.434,3.434,0,0,0,3.021-2.006A16.29,16.29,0,0,0,78.015,144.912Z" fill="#5a6fa4"/>
        </g>
      </g>
      <g id="Group_1608" data-name="Group 1608">
        <path id="Path_2753" data-name="Path 2753" d="M373.6,297.379a34.531,34.531,0,1,1-34.532-34.531A34.531,34.531,0,0,1,373.6,297.379Z" fill="rgba(0,0,0,0)" stroke="#5a6fa4" stroke-miterlimit="10" stroke-width="2"/>
        <g id="Group_1607" data-name="Group 1607">
          <g id="Group_1602" data-name="Group 1602">
            <path id="Path_2754" data-name="Path 2754" d="M339.067,302.645c-7.49,0-21.658-1.1-21.658-5.266s14.168-5.265,21.658-5.265,21.662,1.1,21.662,5.265S346.559,302.645,339.067,302.645Zm0-8.788a73.76,73.76,0,0,0-14.519,1.268c-4.481.947-5.4,2.02-5.4,2.254s.916,1.308,5.4,2.256a83.829,83.829,0,0,0,29.039,0c4.482-.948,5.4-2.021,5.4-2.256s-.916-1.307-5.4-2.254A73.767,73.767,0,0,0,339.067,293.857Z" fill="#5a6fa4"/>
          </g>
          <g id="Group_1603" data-name="Group 1603">
            <path id="Path_2755" data-name="Path 2755" d="M339.067,311.584c-11.941,0-21.658-6.371-21.658-14.205s9.717-14.2,21.658-14.2,21.662,6.373,21.662,14.2S351.012,311.584,339.067,311.584Zm0-26.668c-10.981,0-19.916,5.591-19.916,12.463s8.935,12.464,19.916,12.464,19.918-5.591,19.918-12.464S350.052,284.916,339.067,284.916Z" fill="#5a6fa4"/>
          </g>
          <g id="Group_1604" data-name="Group 1604">
            <path id="Path_2756" data-name="Path 2756" d="M339.067,319.039c-4.421,0-5.59-14.168-5.59-21.66s1.169-21.658,5.59-21.658,5.594,14.168,5.594,21.658S343.491,319.039,339.067,319.039Zm0-41.576c-1.3,0-3.848,7.029-3.848,19.916s2.544,19.918,3.848,19.918,3.85-7.03,3.85-19.918S340.374,277.463,339.067,277.463Z" fill="#5a6fa4"/>
          </g>
          <g id="Group_1605" data-name="Group 1605">
            <path id="Path_2757" data-name="Path 2757" d="M339.067,319.039c-7.832,0-14.2-9.717-14.2-21.66s6.371-21.658,14.2-21.658,14.205,9.716,14.205,21.658S346.9,319.039,339.067,319.039Zm0-41.576c-6.871,0-12.461,8.935-12.461,19.916S332.2,317.3,339.067,317.3s12.463-8.936,12.463-19.918S345.94,277.463,339.067,277.463Z" fill="#5a6fa4"/>
          </g>
          <g id="Group_1606" data-name="Group 1606">
            <path id="Path_2758" data-name="Path 2758" d="M339.067,319.039a21.659,21.659,0,1,1,21.662-21.66A21.685,21.685,0,0,1,339.067,319.039Zm0-41.576a19.917,19.917,0,1,0,19.918,19.916A19.939,19.939,0,0,0,339.067,277.463Z" fill="#5a6fa4"/>
          </g>
        </g>
      </g>
      <g id="Group_1615" data-name="Group 1615">
        <g id="Group_1609" data-name="Group 1609">
          <path id="Path_2759" data-name="Path 2759" d="M414.262,225.793a20.33,20.33,0,1,1-20.331-20.33A20.331,20.331,0,0,1,414.262,225.793Z" fill="rgba(0,0,0,0)" stroke="#5a6fa4" stroke-miterlimit="10" stroke-width="1.165" stroke-dasharray="2.365 2.365"/>
        </g>
        <g id="Group_1614" data-name="Group 1614">
          <g id="Group_1611" data-name="Group 1611">
            <g id="Group_1610" data-name="Group 1610">
              <path id="Path_2760" data-name="Path 2760" d="M402.995,233a2.768,2.768,0,0,0-2.15-1.805l-3.748-1.074-.025.042-1.28-1.191-.006,0v-.936a3.166,3.166,0,0,0,1.555-1.819c.035-.14.069-.273.1-.4h0s.117-.418.252-.982c.852.121.881-2,.881-2a.41.41,0,0,0-.471-.283c0-.061.005-.119.005-.173,0,0,1.629-6.792-4.54-6.575,0,0-2.246.324-2.464,1.568a1.753,1.753,0,0,0-1.233,1.327,18.42,18.42,0,0,0-.137,3.878.433.433,0,0,0-.586.258s.094,2.131.959,2c.069.244.141.485.23.72.053.205.108.426.17.665a3.156,3.156,0,0,0,1.555,1.819v.875l-.009-.006-1.453,1.353-3.581.934A2.773,2.773,0,0,0,384.866,233l-.75,2.794h19.631Z" fill="#5a6fa4"/>
            </g>
          </g>
          <g id="Group_1612" data-name="Group 1612">
            <path id="Path_2761" data-name="Path 2761" d="M386.959,230.912l2.79-.728c-.092-.024-.15-.034-.15-.034l-2.971-.852-.02.033-1.017-.945-.005,0v-.743a2.506,2.506,0,0,0,1.235-1.443c.028-.111.055-.217.08-.318h0s.092-.333.2-.779c.676.1.7-1.586.7-1.586a.325.325,0,0,0-.373-.225c0-.048,0-.1,0-.137,0,0,1.293-5.389-3.6-5.217,0,0-1.784.257-1.956,1.245a1.388,1.388,0,0,0-.979,1.052,14.443,14.443,0,0,0-.107,3.078.344.344,0,0,0-.467.2s.074,1.69.761,1.584c.054.193.113.384.184.57.041.164.086.338.132.529a2.506,2.506,0,0,0,1.237,1.443v.694l-.009,0-1.152,1.072-2.843.742a2.193,2.193,0,0,0-1.706,1.432l-.6,2.217h8.026l.235-.877A3.018,3.018,0,0,1,386.959,230.912Z" fill="#5a6fa4"/>
          </g>
          <g id="Group_1613" data-name="Group 1613">
            <path id="Path_2762" data-name="Path 2762" d="M403.711,233.8h7.821l-.594-2.217a2.2,2.2,0,0,0-1.708-1.432l-2.973-.852-.019.033-1.016-.945-.006,0v-.743a2.508,2.508,0,0,0,1.234-1.443c.03-.111.056-.217.082-.318h0s.092-.333.2-.779c.674.1.7-1.586.7-1.586a.326.326,0,0,0-.373-.225c0-.048,0-.1,0-.137,0,0,1.293-5.389-3.6-5.217,0,0-1.784.257-1.956,1.245a1.389,1.389,0,0,0-.978,1.052,14.522,14.522,0,0,0-.107,3.078.347.347,0,0,0-.469.2s.075,1.69.765,1.584c.052.193.112.384.181.57.042.164.085.338.134.529a2.51,2.51,0,0,0,1.235,1.443v.694l-.009,0-1.151,1.072-2.843.742-.006,0,2.651.76a3.019,3.019,0,0,1,2.365,2.006l.235.881h.2Z" fill="#5a6fa4"/>
          </g>
        </g>
      </g>
      <g id="Group_1617" data-name="Group 1617">
        <g id="Group_1616" data-name="Group 1616">
          <path id="Path_2763" data-name="Path 2763" d="M159.059,314.358a20.331,20.331,0,1,1-20.332-20.329A20.332,20.332,0,0,1,159.059,314.358Z" fill="rgba(0,0,0,0)" stroke="#5a6fa4" stroke-miterlimit="10" stroke-width="1.165" stroke-dasharray="2.365 2.365"/>
        </g>
        <path id="Path_2764" data-name="Path 2764" d="M149.147,304.574H128.308a.813.813,0,0,0-.814.813v13.531a.814.814,0,0,0,.814.813H141.32c.747.794,2.068,2.58.993,4.413,0,0,4.02-1.521,4.731-4.413h2.1a.813.813,0,0,0,.812-.813V305.387A.812.812,0,0,0,149.147,304.574Zm-2,10.9H130.308a.385.385,0,1,1,0-.771h16.839a.385.385,0,0,1,0,.771Zm0-2.935H130.308a.384.384,0,1,1,0-.769h16.839a.384.384,0,1,1,0,.769Zm0-2.934H130.308a.385.385,0,1,1,0-.77h16.839a.385.385,0,1,1,0,.77Z" fill="#5a6fa4"/>
      </g>
      <g id="Group_1620" data-name="Group 1620">
        <g id="Group_1618" data-name="Group 1618">
          <path id="Path_2765" data-name="Path 2765" d="M51.592,229.107a20.329,20.329,0,1,1-20.329-20.33A20.329,20.329,0,0,1,51.592,229.107Z" fill="rgba(0,0,0,0)" stroke="#5a6fa4" stroke-miterlimit="10" stroke-width="1.165" stroke-dasharray="2.365 2.365"/>
        </g>
        <g id="Group_1619" data-name="Group 1619">
          <path id="Path_2766" data-name="Path 2766" d="M34.849,229.957l-3.6,3.147-3.582-3.295-7.593,7.947h22.5a1.072,1.072,0,0,0,.368-.066Z" fill="#5a6fa4"/>
          <path id="Path_2767" data-name="Path 2767" d="M36.1,228.863l7.576,7.239V222.24Z" fill="#5a6fa4"/>
          <path id="Path_2768" data-name="Path 2768" d="M31.273,231.127l11.953-10.45a1.094,1.094,0,0,0-.655-.218H19.952a1.1,1.1,0,0,0-.245.028Z" fill="#5a6fa4"/>
          <path id="Path_2769" data-name="Path 2769" d="M18.849,221.7v14.943l7.6-7.953Z" fill="#5a6fa4"/>
        </g>
      </g>
      <g id="Group_1626" data-name="Group 1626">
        <g id="Group_1621" data-name="Group 1621">
          <circle id="Ellipse_48" data-name="Ellipse 48" cx="20.331" cy="20.331" r="20.331" transform="translate(313.146 200.128)" fill="rgba(0,0,0,0)" stroke="#5a6fa4" stroke-miterlimit="10" stroke-width="1.165" stroke-dasharray="2.365 2.365"/>
        </g>
        <g id="Group_1625" data-name="Group 1625">
          <g id="Group_1622" data-name="Group 1622">
            <path id="Path_2770" data-name="Path 2770" d="M346.628,217.506a1.443,1.443,0,0,1-2.039-.066,15.788,15.788,0,0,0-22.289-.708,1.442,1.442,0,1,1-1.975-2.1,18.674,18.674,0,0,1,26.368.836A1.443,1.443,0,0,1,346.628,217.506Z" fill="#5a6fa4"/>
          </g>
          <g id="Group_1623" data-name="Group 1623">
            <path id="Path_2771" data-name="Path 2771" d="M343.509,220.986a1.444,1.444,0,0,1-2.04-.064,11.5,11.5,0,0,0-16.24-.516,1.444,1.444,0,1,1-1.977-2.105,14.4,14.4,0,0,1,20.322.645A1.443,1.443,0,0,1,343.509,220.986Z" fill="#5a6fa4"/>
          </g>
          <g id="Group_1624" data-name="Group 1624">
            <path id="Path_2772" data-name="Path 2772" d="M340.565,224.854a1.444,1.444,0,0,1-2.042-.065,7.461,7.461,0,0,0-10.532-.334,1.443,1.443,0,1,1-1.974-2.1,10.347,10.347,0,0,1,14.611.463A1.443,1.443,0,0,1,340.565,224.854Z" fill="#5a6fa4"/>
          </g>
          <path id="Path_2773" data-name="Path 2773" d="M335.646,225.891a3.23,3.23,0,1,1-4.567-.146A3.23,3.23,0,0,1,335.646,225.891Z" fill="#5a6fa4"/>
        </g>
      </g>
      <g id="Group_1634" data-name="Group 1634">
        <g id="Group_1627" data-name="Group 1627">
          <path id="Path_2774" data-name="Path 2774" d="M131.52,373.777a20.33,20.33,0,1,1-20.33-20.33A20.331,20.331,0,0,1,131.52,373.777Z" fill="rgba(0,0,0,0)" stroke="#5a6fa4" stroke-miterlimit="10" stroke-width="1.165" stroke-dasharray="2.365 2.365"/>
        </g>
        <g id="Group_1633" data-name="Group 1633">
          <g id="Group_1628" data-name="Group 1628">
            <path id="Path_2775" data-name="Path 2775" d="M111.189,376.877c-4.411,0-12.753-.647-12.753-3.1s8.342-3.1,12.753-3.1,12.752.647,12.752,3.1S115.6,376.877,111.189,376.877Zm0-5.174a43.467,43.467,0,0,0-8.548.746c-2.639.559-3.178,1.19-3.178,1.328s.539.77,3.178,1.328a49.283,49.283,0,0,0,17.1,0c2.639-.558,3.178-1.189,3.178-1.328s-.539-.769-3.178-1.328A43.467,43.467,0,0,0,111.189,371.7Z" fill="#5a6fa4"/>
          </g>
          <g id="Group_1629" data-name="Group 1629">
            <path id="Path_2776" data-name="Path 2776" d="M111.189,382.141c-7.031,0-12.753-3.752-12.753-8.364s5.722-8.363,12.753-8.363,12.752,3.752,12.752,8.363S118.22,382.141,111.189,382.141Zm0-15.7c-6.465,0-11.726,3.292-11.726,7.338s5.261,7.338,11.726,7.338,11.726-3.292,11.726-7.338S117.654,366.439,111.189,366.439Z" fill="#5a6fa4"/>
          </g>
          <g id="Group_1630" data-name="Group 1630">
            <path id="Path_2777" data-name="Path 2777" d="M111.189,386.529c-2.6,0-3.292-8.342-3.292-12.752s.689-12.752,3.292-12.752,3.291,8.342,3.291,12.752S113.794,386.529,111.189,386.529Zm0-24.478c-.769,0-2.266,4.138-2.266,11.726s1.5,11.727,2.266,11.727,2.266-4.139,2.266-11.727S111.958,362.051,111.189,362.051Z" fill="#5a6fa4"/>
          </g>
          <g id="Group_1631" data-name="Group 1631">
            <path id="Path_2778" data-name="Path 2778" d="M111.189,386.529c-4.611,0-8.364-5.72-8.364-12.752s3.753-12.752,8.364-12.752,8.361,5.721,8.361,12.752S115.8,386.529,111.189,386.529Zm0-24.478c-4.045,0-7.338,5.261-7.338,11.726s3.293,11.727,7.338,11.727,7.337-5.262,7.337-11.727S115.233,362.051,111.189,362.051Z" fill="#5a6fa4"/>
          </g>
          <g id="Group_1632" data-name="Group 1632">
            <path id="Path_2779" data-name="Path 2779" d="M111.189,386.529a12.752,12.752,0,1,1,12.752-12.752A12.767,12.767,0,0,1,111.189,386.529Zm0-24.478a11.727,11.727,0,1,0,11.726,11.726A11.74,11.74,0,0,0,111.189,362.051Z" fill="#5a6fa4"/>
          </g>
        </g>
      </g>
      <g id="Group_1636" data-name="Group 1636">
        <g id="Group_1635" data-name="Group 1635">
          <path id="Path_2780" data-name="Path 2780" d="M337.739,61.691a20.33,20.33,0,1,1-20.329-20.33A20.329,20.329,0,0,1,337.739,61.691Z" fill="rgba(0,0,0,0)" stroke="#5a6fa4" stroke-miterlimit="10" stroke-width="1.165" stroke-dasharray="2.365 2.365"/>
        </g>
        <path id="Path_2781" data-name="Path 2781" d="M323.433,49.914H311.384a1.316,1.316,0,0,0-1.317,1.316V72.152a1.317,1.317,0,0,0,1.317,1.317h12.049a1.316,1.316,0,0,0,1.316-1.317V51.23A1.315,1.315,0,0,0,323.433,49.914Zm-4.279,22.5h-3.489a.428.428,0,1,1,0-.855h3.489a.428.428,0,1,1,0,.855Zm3.145-2.956H312.52V52.063H322.3Zm.942.982H311.576V51.22h11.665Z" fill="#5a6fa4"/>
      </g>
      <g id="Group_1639" data-name="Group 1639">
        <g id="Group_1637" data-name="Group 1637">
          <path id="Path_2782" data-name="Path 2782" d="M324.866,376.877a20.331,20.331,0,1,1-20.331-20.33A20.33,20.33,0,0,1,324.866,376.877Z" fill="rgba(0,0,0,0)" stroke="#5a6fa4" stroke-miterlimit="10" stroke-width="1.165" stroke-dasharray="2.365 2.365"/>
        </g>
        <g id="Group_1638" data-name="Group 1638">
          <path id="Path_2783" data-name="Path 2783" d="M311.736,383.779h3.426l-.315.4a12.111,12.111,0,0,1-4.409,3.442,12.847,12.847,0,0,1-5.455,1.2,10.72,10.72,0,0,1-7.9-3.176,11.356,11.356,0,0,1-3.176-8.4,13.22,13.22,0,0,1,2.961-8.748,10.123,10.123,0,0,1,8.233-3.559,9.754,9.754,0,0,1,5.155,1.214,9.583,9.583,0,0,1,4.673,8.782,10.583,10.583,0,0,1-1.864,6.086,6.257,6.257,0,0,1-5.32,3.093,2.14,2.14,0,0,1-2.228-1.379,6.469,6.469,0,0,1-1.381,1.014,3.788,3.788,0,0,1-1.713.365,4.084,4.084,0,0,1-3.61-1.895,7.2,7.2,0,0,1-1.1-4.109,11.69,11.69,0,0,1,1.462-5.753q1.741-3.16,4.615-3.161a3.614,3.614,0,0,1,2.989,1.545l.176-1.112h3.148l-1.812,11.459c0,.189.083.283.25.283a2.809,2.809,0,0,0,1.962-1.048,7.22,7.22,0,0,0,1.263-1.9,8.19,8.19,0,0,0,.683-3.492,7.493,7.493,0,0,0-1.988-5.414,7.024,7.024,0,0,0-5.315-2.071,8.274,8.274,0,0,0-6.294,2.619,9.853,9.853,0,0,0-2.471,7.043,9.521,9.521,0,0,0,2.246,6.571,8.045,8.045,0,0,0,6.336,2.644,10.379,10.379,0,0,0,6.7-2.478Zm-6.4-5.455a15.746,15.746,0,0,0,.564-4.041,3.52,3.52,0,0,0-.347-1.646,1.41,1.41,0,0,0-1.331-.848q-1.7,0-2.578,2.86a14.1,14.1,0,0,0-.632,4.224,4.087,4.087,0,0,0,.367,1.8,1.511,1.511,0,0,0,1.4,1,2.018,2.018,0,0,0,1.778-1.181A9.661,9.661,0,0,0,305.333,378.324Z" fill="#5a6fa4"/>
        </g>
      </g>
      <g id="Group_1642" data-name="Group 1642">
        <g id="Group_1640" data-name="Group 1640">
          <path id="Path_2784" data-name="Path 2784" d="M159.059,114.318a20.331,20.331,0,1,1-20.332-20.329A20.331,20.331,0,0,1,159.059,114.318Z" fill="rgba(0,0,0,0)" stroke="#5a6fa4" stroke-miterlimit="10" stroke-width="1.165" stroke-dasharray="2.365 2.365"/>
        </g>
        <g id="Group_1641" data-name="Group 1641">
          <path id="Path_2785" data-name="Path 2785" d="M149.564,103.057H127.457a.994.994,0,0,0-1,.994v15.442a.994.994,0,0,0,1,.994h22.107a1,1,0,0,0,1-.994V104.051A1,1,0,0,0,149.564,103.057Zm-.782,15.607H128.24V104.547h20.542Z" fill="#5a6fa4"/>
          <rect id="Rectangle_751" data-name="Rectangle 751" width="18.795" height="12.641" transform="translate(129.112 105.285)" fill="#5a6fa4"/>
          <rect id="Rectangle_752" data-name="Rectangle 752" width="31.336" height="0.738" transform="translate(123.06 124.844)" fill="#5a6fa4"/>
          <path id="Path_2786" data-name="Path 2786" d="M150.559,121.191h-24.1l-3.4,3.055H154.4Zm-23.8.422H150.5l1.357,1.107H125.6Zm7.976,2.221.665-.877H142l.725.877Z" fill="#5a6fa4"/>
        </g>
      </g>
      <g id="Group_1645" data-name="Group 1645">
        <g id="Group_1643" data-name="Group 1643">
          <path id="Path_2787" data-name="Path 2787" d="M104.337,61.691a20.33,20.33,0,1,1-20.331-20.33A20.331,20.331,0,0,1,104.337,61.691Z" fill="rgba(0,0,0,0)" stroke="#5a6fa4" stroke-miterlimit="10" stroke-width="1.165" stroke-dasharray="2.365 2.365"/>
        </g>
        <g id="Group_1644" data-name="Group 1644">
          <path id="Path_2788" data-name="Path 2788" d="M84.006,57.472A5.929,5.929,0,1,0,89.935,63.4,5.928,5.928,0,0,0,84.006,57.472ZM86.592,66.9A4.448,4.448,0,0,0,80.7,60.316,4.448,4.448,0,1,1,86.592,66.9Z" fill="#5a6fa4"/>
          <path id="Path_2789" data-name="Path 2789" d="M95.477,53.848H72.532a1.076,1.076,0,0,0-1.076,1.076V71.878a1.076,1.076,0,0,0,1.076,1.076H95.477a1.078,1.078,0,0,0,1.079-1.076V54.924A1.078,1.078,0,0,0,95.477,53.848ZM84.006,71.3a7.9,7.9,0,1,1,7.9-7.9A7.9,7.9,0,0,1,84.006,71.3Zm11.3-14.387H89.935V55.3h5.373Z" fill="#5a6fa4"/>
          <path id="Path_2790" data-name="Path 2790" d="M89.114,50.43H79.379L76.29,53.39H91.72Zm-.211.806H79.539V50.86H88.9Z" fill="#5a6fa4"/>
        </g>
      </g>
      <g id="Group_1647" data-name="Group 1647">
        <path id="Path_2791" data-name="Path 2791" d="M296.336,212.6A83.739,83.739,0,1,1,212.6,128.859,83.738,83.738,0,0,1,296.336,212.6Z" fill="url(#radial-gradient)"/>
        <path id="Path_2792" data-name="Path 2792" d="M291.031,218.657A47.418,47.418,0,0,1,274.5,232.106a102.676,102.676,0,0,1-23.475,8.528c-14.492,3.3-30.15,3.108-43.7-3.555-26.947-13.247-37.793-46.772-33.287-74.978a75.809,75.809,0,0,1,10.293-28.345A83.748,83.748,0,1,0,296.336,212.6c0-1.049-.026-2.091-.065-3.13A43.615,43.615,0,0,1,291.031,218.657Z" fill="#e0e1e3" style="mix-blend-mode: multiply;isolation: isolate"/>
        <path id="Path_2793" data-name="Path 2793" d="M244.424,284.8a88.059,88.059,0,0,1-29.213-4.509c-16.5-5.749-30.461-17.071-40.617-31.184-10.2-14.172-16.744-30.9-20.574-47.874-3.37-14.931-4.524-30.969-2.219-46.2a83.737,83.737,0,0,0,104.584,128.95A83.689,83.689,0,0,1,244.424,284.8Z" fill="#e0e1e3" style="mix-blend-mode: multiply;isolation: isolate"/>
        <g id="Group_1646" data-name="Group 1646" opacity="0.4">
          <path id="Path_2794" data-name="Path 2794" d="M137.377,177.877c1.223-.09,1.312-2.247,1.076-3.047a2.847,2.847,0,0,0-.289-.631q-.8,1.548-1.533,3.134C136.82,177.528,137.023,177.907,137.377,177.877Z" fill="rgba(0,0,0,0)"/>
          <path id="Path_2795" data-name="Path 2795" d="M183.957,289.767c-.3-.281-.969-.171-1.125-.485-.326-.689.84-1.233.971-1.664a9.292,9.292,0,0,0-.172-2.19c-.158-.864-.879-.964-1.207-1.753-.18-.416-.157-.767-.367-1.208-.2-.388-.448-.721-.616-1.088-.459-.99.225-1.331.094-2.268-.041-.308-.434-.831-.527-1.212a5.668,5.668,0,0,1-.184-1.233c-.051-.968.158-2.108.027-3.04-.078-.515-.408-1.008-.456-1.572-.069-.543-.012-1.089-.069-1.624a16.587,16.587,0,0,0-.443-3.48,13.424,13.424,0,0,1-.3-7.269c.656-2.6-.879-3.661-2.9-5.27-.981-.791-1.307-1.237-2.6-1.295-1.156-.059-1.17-.244-1.758-1.247-.433-.72-1.062-1.376-1.455-2.083-.447-.8-.574-1.7-1.072-2.536a7.679,7.679,0,0,1-1.207-2.831,5.568,5.568,0,0,0-.539-1.993c-.053-.091-.984-1.3-.984-1.3-1.27-.163-.745-1.723-.4-2.464.276-.63.8-1.335.537-2.018-.209-.532-.537-.289-.484-1.043a2.622,2.622,0,0,1,.434-1.238,24.168,24.168,0,0,1,2.63-3.753c1.051-1.39,1.59-3.029.711-4.623-.394-.7-.316-1.485-.97-1.97a3.225,3.225,0,0,0-2.165-.314c-.027.642.161,1.682-.537,2-.838.387-1.742-.738-2.279-1.147-.588-.453-1.351-.725-1.93-1.151-.679-.505-.652-.965-.951-1.645-.277-.623-.853-1.042-1.129-1.775-.25-.737-.133-1.455-1.062-1.731-.6-.183-1.391.1-2.018.005a7.861,7.861,0,0,1-2.689-1.683c-.393-.36-.6-.754-1.061-1.122-1.437-1.158-2.582-.1-4.219-.169-1.415-.073-3.185-1.409-4.376-2.177a9.627,9.627,0,0,1-3.4-3.452c-.8-1.454.029-3.138-1.311-4.463-.548-.55-1.375-.781-1.6-1.54-.106-.362.064-.791-.016-1.161a4.873,4.873,0,0,0-.6-1.133c-.526-1.01-.879-4.3-2.36-4.293-1.781,0,.459,3.566.815,4.293a11.492,11.492,0,0,1,.576,2.425c.09.479.066.963.186,1.431.1.419.337.614.244,1.126-2.307-.374-1.313-3.219-2.36-4.373-.379-.412-.679-.229-.863-.9-.115-.425.08-.942,0-1.383a11.2,11.2,0,0,0-.918-2.541c-.379-.878-.078-1.986-.551-2.8a2.83,2.83,0,0,0-1.818-1.187,83.841,83.841,0,0,0,53.465,98.367c-.047-.233-.094-.46-.151-.678A2.269,2.269,0,0,0,183.957,289.767Z" fill="rgba(0,0,0,0)"/>
          <path id="Path_2796" data-name="Path 2796" d="M293.7,203.344a25.772,25.772,0,0,1-1.115-3.894c-.354.172-.613.713-.994.61-.592-.163-.317-.812-.567-1.013-.812-.7-1.756-.443-1.572.679.168,1.023,1.178,2.379,1.586,3.382a4.1,4.1,0,0,0,1.443,2.112c1.075.83,1.977,1.047,2.1,2.489.147,1.612-.236,2.241.781,3.571a11.972,11.972,0,0,1,.977,1.512c0-.064,0-.129,0-.2q0-2.331-.129-4.629a5.764,5.764,0,0,1-.832-1.563C294.943,205.31,294.154,204.346,293.7,203.344Z" fill="rgba(0,0,0,0)"/>
          <path id="Path_2797" data-name="Path 2797" d="M191.154,293.043c.155-.95,1.363-1.591,1.416-2.554.024-.965-1.207-1.554-1.324-2.525-.1-.929.815-1.591.709-2.536-.133-1.159-1.3-1.855-1.3-3.144.721.064,1.008,1.132,1.823.254.353-.378.115-1.036.353-1.364.354-.471.8-.24,1.322-.307,1.522-.164,4.09-1.868,3.215-3.761-.2-.414-1.732-1.632-.683-1.823.156-.032.97.466,1.232.513a2.667,2.667,0,0,0,1.52-.072,4.31,4.31,0,0,0,2.214-2.5,2.92,2.92,0,0,1,1.129-1.652c1.559-1.29,1.848-3.14,1.727-5.044-.119-1.771-.393-3.46,1.967-3.7a3.908,3.908,0,0,0,1.234-.178,4.927,4.927,0,0,1,1.232-.523c1.2-.229,1.334-.5,1.9-1.581.418-.8.9-1.605,1.258-2.47a11.634,11.634,0,0,0,.539-3.355c.117-.957.4-1.855.484-2.819s-.158-1.88.471-2.645,1.338-1,1.795-1.934c.746-1.488,1.427-2.5,1.427-4.2a8.339,8.339,0,0,0,0-2.439c-.337-.957-.97-.49-1.754-.709-1.624-.471-1.521-2.8-3.3-3.046-.738-.1-1.494.086-2.229-.02a13.878,13.878,0,0,0-2.763-.011c.156-1.1-1.235-1.7-2.008-2.085-.459-.231-.237-.3-.84-.21a4.42,4.42,0,0,0-.772.308,7.4,7.4,0,0,0-1.466.851c-.133-.666.482-1.08.326-1.73-2.08-.879-2.938.694-4.35,1.816-.4-.956.143-1.309.795-1.9a2.2,2.2,0,0,0,.883-1.522c.211-1.33-.525-2.806-.883-4.077-.326-1.16-.785-1.074-1.859-1.074a9.019,9.019,0,0,1-2.266-.15c-2.767-.7-3.748-3.7-6.306-4.6a19.89,19.89,0,0,0-3.76-.767,13.139,13.139,0,0,1-1.768-.453c-.84-.275-1.078-.8-1.668-1.3s-1.125-.367-1.859-.132c-.486.165-2.029.891-1.035,1.375a2.211,2.211,0,0,1-.016,1.372c-.313.569-1.022.423-1.3.9a1.85,1.85,0,0,1-.533-2.2c.248-.736,1.191-1.265,1.127-2.085-.811-.157-1.363.722-2.008,1.016a9.157,9.157,0,0,0-1.887.917,3.539,3.539,0,0,0-.72.662c-.207.295-.233.735-.51,1a1.833,1.833,0,0,1-.893.343c-.666.138-.314.209-.89-.19-.852-.576-.942-.5-1.9-.262a21.124,21.124,0,0,0-2.174.628c-.513.183-.054.557-.787.158a3.353,3.353,0,0,1-.787-.9,2.865,2.865,0,0,1-.718-2.236c.076-.814.314-1.572.431-2.384.1-.628.5-1.795.2-2.381-.838-1.682-3.276.041-4.5-.445-1.033-.418-.3-.956.274-1.618a3.451,3.451,0,0,0,.883-2.122c.142-.682,1.15-1.37,1.205-2.032.062-.884-1.575-1.581-2.244-1.782a2,2,0,0,0-2.452.837c-.457,1,.225,1.462-.9,2.216a7.526,7.526,0,0,1-2.072,1.01c-1.205.308-2.03.438-2.631-.661a6.78,6.78,0,0,1-.893-4.162,19.163,19.163,0,0,1,.907-3.7c.127-.471.127-.89.234-1.357.17-.766-.131-.538.666-.8a3.921,3.921,0,0,0,2.031-1.206,3.53,3.53,0,0,1,2.545-.786c.85-.041,1.506.374,2.268.345,1.021-.033,1.271-.928,2.031-1.223a3.7,3.7,0,0,1,2.541.438c.762.28,1.863-.314,2.449.078.684.459.369,1.54.539,2.216a11.032,11.032,0,0,1,.42,1.119c.08.414-.129.852-.092,1.233.106.975.932,1.161,1.692.7a2.882,2.882,0,0,0,1.111-2.366c.084-1.226-.625-2.1-.781-3.152-.238-1.737,1.9-1.592,2.8-2.246.986-.7,1.209-2.112,2.279-2.721.893-.512,2.008-.623,2.547-1.664.48-.957-.815-3.841.8-4.228.519-.13.72.427,1.2.362s1.1-.971,1.4-1.326a2.864,2.864,0,0,1,2.334-1.132,2.845,2.845,0,0,0,2.555-1.4c.183-.38.082-.871.3-1.233.431-.714.535-.318,1.209-.517,1.1-.316,1.988-1.233,3.154-1.606.525-.171,2.152-.786,2.453-.276.512.859-1.533.576-1.824,1.286-.719,1.742,2.4-.322,2.689-.44.891-.354,3.08-.123,2.711-1.755a5.412,5.412,0,0,0-1.5.138c-.814.169-.607.3-1.088-.238a1.342,1.342,0,0,1-.119-2c.744-.854,1.176-1.166-.433-1.312a3.465,3.465,0,0,0-1.467.091c-.223.073-.959.734-1.152.683-1.128-.274.613-1.429.968-1.613a10.335,10.335,0,0,1,2.75-.668c1.7-.3,3.932,1.015,5.52.1.418-.228.6-.621,1.021-.863a7.471,7.471,0,0,1,1.377-.486c.813-.3,1.846-.676,2-1.645.315-1.783-2.123-1.107-3.135-1.244.094-.29.633-.6.682-.872.107-.609-.311-.605-.574-1.057-.551-.89-.158-1.724.08-2.58.221-.84.027-2-.8-2.307-1.182-.427-1.51.8-2.213,1.3-.451.315-1.537.6-1.93.015-.328-.48-.183-1.758-.417-2.341-.516-1.224-.971-1.3-2.26-1.427a12.309,12.309,0,0,0-2.461-.085,1.722,1.722,0,0,0-1.741,1.4c-.068.389.2.756-.013,1.122-.25.418-.918.407-1.309.6-1.156.6-.332.964-.185,1.947a2.139,2.139,0,0,1-1.4,2.177,7.476,7.476,0,0,0-1.835,1.236c-.354.336-.669.4-.879.879-.2.427-.116.873-.432,1.317-.471.675-1.152,1.724-2.108,1.489a1.535,1.535,0,0,1-1.05-1.752c.094-.786.814-1.481.619-2.358-.238-1.054-1.316-.806-2.182-1.054a10.675,10.675,0,0,1-2.787-1.4c-.824-.517-1.847-.336-2.125-1.4-.549-2.066,1.694-2.581,3.066-3.219a8.583,8.583,0,0,0,2.819-1.4c.709-.74.314-1.106,1.377-1.16,1.363-.059,3.486-.275,4.482-1.311-.42-.347-1.361-.336-1.14-1.126a19.537,19.537,0,0,0,2-.08,11.626,11.626,0,0,1,2.347-.372c.854.024,2.383.266,2.989-.519a4.013,4.013,0,0,0,.341-2.1c-.644-.061-1.273-.494-1.914-.165-.562.281-.68,1.081-1.193,1.4-1.035.643-1.779-.043-1.625-1.055-.774-.031-1.68.145-2-.715-.274-.765.521-1.7-.537-1.839a2.12,2.12,0,0,0-2.152,1.494c-.116,1.016.328,1.639-1.151,2.01a11.413,11.413,0,0,0-2.506.971c-1.047.5-1.152-.235-2.07-.446a6.265,6.265,0,0,0-1.822.065c-.324.035-1.139.367-1.4.277-.408-.131-.275-.61-.881-.6a5.059,5.059,0,0,0-1.232.551c-.562.314-1.557,1.442-2.238,1.054-.619-.354-.381-1.356-1.27-1.644-.791-.247-1.72.362-2.482.052-.576-.235-.3-.53-.639-.837-.5-.467-1.285-.282-1.955-.479a19.4,19.4,0,0,0-2.254-.625,32.788,32.788,0,0,0-5.41-.345c-.918.007-1.234.5-2.021.813a3.937,3.937,0,0,1-.688.2,83.975,83.975,0,0,0-14.5,20.076,2.847,2.847,0,0,1,.289.631c.236.8.147,2.957-1.076,3.047-.354.03-.557-.349-.746-.544a83.176,83.176,0,0,0-5.5,15.834,2.83,2.83,0,0,1,1.818,1.187c.473.811.172,1.919.551,2.8a11.2,11.2,0,0,1,.918,2.541c.08.441-.115.958,0,1.383.184.669.484.486.863.9,1.047,1.154.053,4,2.36,4.373.093-.512-.145-.707-.244-1.126-.12-.468-.1-.952-.186-1.431a11.492,11.492,0,0,0-.576-2.425c-.356-.727-2.6-4.293-.815-4.293,1.481-.007,1.834,3.283,2.36,4.293a4.873,4.873,0,0,1,.6,1.133c.08.37-.09.8.016,1.161.222.759,1.049.99,1.6,1.54,1.34,1.325.51,3.009,1.311,4.463a9.627,9.627,0,0,0,3.4,3.452c1.191.768,2.961,2.1,4.376,2.177,1.637.072,2.782-.989,4.219.169.459.368.668.762,1.061,1.122a7.861,7.861,0,0,0,2.689,1.683c.627.1,1.414-.188,2.018-.005.929.276.812.994,1.062,1.731.276.733.852,1.152,1.129,1.775.3.68.272,1.14.951,1.645.579.426,1.342.7,1.93,1.151.537.409,1.441,1.534,2.279,1.147.7-.32.51-1.36.537-2a3.225,3.225,0,0,1,2.165.314c.654.485.576,1.271.97,1.97.879,1.594.34,3.233-.711,4.623a24.168,24.168,0,0,0-2.63,3.753,2.622,2.622,0,0,0-.434,1.238c-.053.754.275.511.484,1.043.262.683-.261,1.388-.537,2.018-.34.741-.865,2.3.4,2.464,0,0,.931,1.206.984,1.3a5.568,5.568,0,0,1,.539,1.993,7.679,7.679,0,0,0,1.207,2.831c.5.833.625,1.735,1.072,2.536.393.707,1.022,1.363,1.455,2.083.588,1,.6,1.188,1.758,1.247,1.3.058,1.623.5,2.6,1.295,2.019,1.609,3.554,2.674,2.9,5.27a13.424,13.424,0,0,0,.3,7.269,16.587,16.587,0,0,1,.443,3.48c.057.535,0,1.081.069,1.624.048.564.378,1.057.456,1.572.131.932-.078,2.072-.027,3.04a5.668,5.668,0,0,0,.184,1.233c.093.381.486.9.527,1.212.131.937-.553,1.278-.094,2.268.168.367.418.7.616,1.088.21.441.187.792.367,1.208.328.789,1.049.889,1.207,1.753a9.292,9.292,0,0,1,.172,2.19c-.131.431-1.3.975-.971,1.664.156.314.826.2,1.125.485a2.269,2.269,0,0,1,.486,1.089c.057.218.1.445.151.678q3.213,1.142,6.547,2.025A2.286,2.286,0,0,1,191.154,293.043Z" fill="#fff"/>
          <path id="Path_2798" data-name="Path 2798" d="M174.078,209.033a18.358,18.358,0,0,1-2.021-.9,10.494,10.494,0,0,0-1.912-1.125c-.971-.314-1.926-.307-2.909-.572-.564-.151-.631.021-1.168.139a6.9,6.9,0,0,0-.955.129h.037c-.195.106-1.177.69-.929,1.017.328.433,1.232-.157,1.533-.359,1.074-.691,1.99-.146,3.041.228a4.487,4.487,0,0,1,1.375.558c.236.183.824.609.891.877.144.5-.655.453-.432,1s1.35.42,1.783.392a4.7,4.7,0,0,1,1.033,0c.446.087.748.288,1.194.18.1-.285.418-.618.369-.919C174.941,209.347,174.363,209.16,174.078,209.033Z" fill="#fff"/>
          <path id="Path_2799" data-name="Path 2799" d="M178.623,210.6a2.944,2.944,0,0,1-1.82-.348v-.139c-.5-.092-.2.591-.133.785.121.33.277.553-.26.662-.369.08-.89-.137-1.234.041-.406.22-.313.622.068.753.615.205,1.453-.289,2.069-.217.212.028.25.177.378.205a3.28,3.28,0,0,0,.672.005,4.045,4.045,0,0,0,1.325.04c.234-.079.718-.681.275-.741.668.152.363-.4.088-.675C179.6,210.544,179.238,210.6,178.623,210.6Z" fill="#fff"/>
          <path id="Path_2800" data-name="Path 2800" d="M172.174,212.264c-.3-.23-.631-.03-.672-.453a1.624,1.624,0,0,0-1.32.314c.158.052.343.033.488.1.219.091.219.224.351.336a1.155,1.155,0,0,0,1.012.228C172.426,212.749,172.582,212.584,172.174,212.264Z" fill="#fff"/>
          <path id="Path_2801" data-name="Path 2801" d="M171.494,211.691a.724.724,0,0,0,.008.12c.031,0,.062,0,.1.01Z" fill="#fff"/>
          <path id="Path_2802" data-name="Path 2802" d="M182.976,211.956l.169-.086c-.563-.224-.838-.014-1.166.438.146.334.355.139.6.217.3.092.418.255.746.255.551,0,1.039-.144.943-.819C183.672,211.915,183.539,212.328,182.976,211.956Z" fill="#fff"/>
          <path id="Path_2803" data-name="Path 2803" d="M202.438,174.086a1.019,1.019,0,0,0-.293.064l-.036.064Z" fill="#fff"/>
          <path id="Path_2804" data-name="Path 2804" d="M203.226,175.649a1.024,1.024,0,0,1-.392-.713c-.078-.46.115-.356.2-.722.065-.267.366-.464-.248-.509-.379-.027-.474.158-.636.445a1.019,1.019,0,0,1,.293-.064l-.329.128.036-.064c-.9.291-1.182,1.719-1.753,2.306-.273.27-1.281.6-.523.866.615.209,1.365-.413,2.059-.289.562.1.865.49,1.494.4.459-.064,1.324-.55,1.244-1.114C204.576,175.525,203.693,175.947,203.226,175.649Z" fill="#fff"/>
          <path id="Path_2805" data-name="Path 2805" d="M203.748,155.4a1.817,1.817,0,0,1-.522-1.152c.012-.328.393-.5.393-.715.026-.491-.957-.9-1.39-.989-.67-.131-1.063.072-1.481-.591-.447-.7-.393-1-1.377-.855a3.025,3.025,0,0,1-1.941-.069c-.641-.31-.891-.858-1.69-.982a1.919,1.919,0,0,0-1.717.512c-.326.229-1.349.837-1.767.543-.658-.457.785-.984.8-1.186.027-.628-1.377.014-1.639.131-.693.307-1.311.8-2.018,1.114-.8.354-1.154.674-.275,1.1a4.652,4.652,0,0,0,1.953.28,19.019,19.019,0,0,1,1.994.333c.641.1.912.491,1.479.636.758.2,1.164-.588,1.765-.706a2.333,2.333,0,0,1,1.85.917c.381.419.486.982.932,1.3.291.213.693.279.982.527.485.392.8.938.447,1.476s-.787.3-1.234.045a2.37,2.37,0,0,0-1.295-.457,2.082,2.082,0,0,0-.773.138,3.161,3.161,0,0,0-.643.6,2.826,2.826,0,0,1-1.232.973c-.643.154-1.8-.406-2.372-.07a.416.416,0,0,0-.064.733c.289.175.98-.165,1.258-.2a3.175,3.175,0,0,1,1.937.262c.526.349.657,1.159,1.127,1.631a2.979,2.979,0,0,0,2.229.867c.314-.007.943.066.812-.459-.089-.323-.8-.223-.968-.472a1.473,1.473,0,0,1,.027-.923c.391-.362.865.24,1.123.358.463.211,1.533.269,1.705-.414.094-.385-.172-.49-.314-.784a1.759,1.759,0,0,1-.264-1.049c-.012-1.895,1.879-.432,2.82-.185.733.205,1.742-.523,1.127-1.269C205.152,155.9,204.2,155.93,203.748,155.4Z" fill="#fff"/>
          <path id="Path_2806" data-name="Path 2806" d="M168.021,150.164a6.621,6.621,0,0,1,1.754-.117c.227-.006,1.012-.046,1-.355-.013-.486-1.322-.393-1.6-.457a8.5,8.5,0,0,1-.916-.26,2.367,2.367,0,0,0-.907-.109,2.962,2.962,0,0,0-.626.014c-.186.046-.342.165-.528.21a2.156,2.156,0,0,0-.521.242c-.156.09-.356.145-.526.236a8.976,8.976,0,0,1-.785.584c-.332.164-.691.217-1.023.367-.512.23-.866.721-1.4.844.147.191.274.42.524.5a2.007,2.007,0,0,0,.445.019c.119.019.237.085.344.09.143.015.184.021.287-.131.1-.13.135-.295.262-.411a1.086,1.086,0,0,1,.773-.177,2.085,2.085,0,0,0,1.076-.224,4.517,4.517,0,0,1,1.164-.431C167.225,150.48,167.613,150.31,168.021,150.164Z" fill="#fff"/>
          <path id="Path_2807" data-name="Path 2807" d="M176.633,152.388c-.344-.356,0-.873.259-1.156.133-.15.317-.261.446-.419.094-.116.263-.511.174-.654-.12-.177-.576-.118-.778-.112a.79.79,0,0,0-.679.341c-.235.321-.2,1.118-.811.975a.758.758,0,0,1-.486-.725c0-.074.039-.224,0-.284-.065-.143-.356-.183-.5-.125s-.289.236-.457.316a1.4,1.4,0,0,1-.434.156,3.63,3.63,0,0,1-1.168-.3c-.2-.073-.355-.212-.551-.264a3.005,3.005,0,0,0-.929.034,1.468,1.468,0,0,0-.539.2,2.275,2.275,0,0,1-1.11.113,1.537,1.537,0,0,0-.984.177,1.628,1.628,0,0,1-.446.141,1.525,1.525,0,0,0-.447.224c-.3.217-.066.262.172.334.221.067.6.123.748.354.205.367-.277.432-.552.454-.172.011-.8-.146-.838.13-.014.243,1.046.059,1.269.091.17.028.473.261.326.485-.062.111-.6.059-.707.059a5.14,5.14,0,0,0-.888-.019.519.519,0,0,0-.5.555c.026.972,1.35.519,1.95.728.433.158.672.636,1.115.722.59.126,1.6.022,1.889-.59.105-.223.052-.491.275-.641.262-.164.746-.074,1.033-.074.45,0,.84-.077,1.285-.065a.464.464,0,0,1,.383.151,3.054,3.054,0,0,0,.889.459,2.325,2.325,0,0,0,1.637-.163c.277-.124.539-.323.8-.472.16-.092.448-.216.463-.422C177.967,152.611,176.906,152.668,176.633,152.388Z" fill="#fff"/>
          <path id="Path_2808" data-name="Path 2808" d="M238.285,154.515c.774-.046,1.428-.446.4-.9-.785-.352-1.533-.248-1.533-1.381.016-.944.725-.818,1.418-.47.432.221,1.557,1.27,2.137.9.9-.563-.33-1.114-.707-1.3-.553-.261-1.473-.538-1.248-1.316.25-.9,2.072-.911,2.832-1.192a4.377,4.377,0,0,0,2.176-1.626c.468-.807.168-1.692.431-2.5.5-1.527,2.883-.751,3.868-1.644.4-.366.457-.347-.083-.524-.757-.256-1.806.15-2.58.2-1.168.074-1.074-.449-1.962-.987-.973-.6-2.663-.261-3.778-.261a16.129,16.129,0,0,0-3.58.238c-1.742.39-3.289,1.342-5.16,1.335-1.524-.006-3.028-.393-4.574-.251a46.009,46.009,0,0,1-5.965-.011,8.081,8.081,0,0,0-3.434.326l.131-.064c-1.467.329-2.779,1.212-4.3,1.495a32.06,32.06,0,0,0-3.3.524c-.608.178-1.536.84-.971,1.577.627.834,3.25.186,4.283.343a6.21,6.21,0,0,1,3.043,1.854,5.4,5.4,0,0,1,.859,3.03c.1,1.6-1.33,2.653-2.107,3.8-1.217,1.813.852,4.226,1.115,6.021.143.988,1.336,1.306,2.322,1.043a6.912,6.912,0,0,0,2.2-1.463c.994-.872.994-2.144,2.134-2.92a8.273,8.273,0,0,1,3.592-1.2c2.949-.561,5.348-2.822,8.387-2.809C235.623,154.385,236.947,154.6,238.285,154.515Z" fill="#fff"/>
          <path id="Path_2809" data-name="Path 2809" d="M247.891,168.219a2.952,2.952,0,0,0-.918.34,3.205,3.205,0,0,1-1.823-.019,1.015,1.015,0,0,0-.906.1,1.555,1.555,0,0,1-.769.386,1.145,1.145,0,0,0-.8.363c-.131.13-.68.414-.494.647.1.151.248,0,.351-.026.209-.051.209-.125.457-.033a4.346,4.346,0,0,1,.826.558,1.744,1.744,0,0,0,1.811-.158c.324-.19.51-.111.9-.17a3.939,3.939,0,0,0,.92-.362c.3-.123.744-.091.953-.338.12-.127.12-.291.239-.422.078-.084.353-.111.392-.183a.928.928,0,0,0,.08-.076c-.119-.107-.344-.324-.511-.329l.107.031C248.389,168.472,248.271,168.187,247.891,168.219Z" fill="#fff"/>
          <path id="Path_2810" data-name="Path 2810" d="M248.338,170.131c-.17.18-.656.231-.656.506.009.4.509.223.172.728-.186.273-.473.5-.538.844s-.056.76.366.729c.47-.034.525-.567.918-.624.638-.09,1.453.446,1.99-.1a1.281,1.281,0,0,0,.34-1.284c-.182-.386-.7-.532-1.086-.747-.262-.157-.418-.622-.748-.6h.066C248.807,169.412,248.531,169.922,248.338,170.131Z" fill="#fff"/>
          <path id="Path_2811" data-name="Path 2811" d="M250.318,169.922c.262.18.85.341.745-.232-.381.012-.184-.371.119-.336.037-.524-.983.039-1.036-.295l.042.064c-.2,0-.459-.064-.581.1A5.9,5.9,0,0,0,250.318,169.922Z" fill="#fff"/>
          <path id="Path_2812" data-name="Path 2812" d="M252.506,174.549a13.811,13.811,0,0,0,1.846-.768,3.005,3.005,0,0,1,1.466-.025,3.118,3.118,0,0,0,1.85-.537c.145-.118.342-.277.3-.486-.041-.17-.225-.176-.317-.295-.262-.4.344-.477.211-.875-.1-.351-.486-.146-.761-.173-.446-.039-.614-.523-.76-.911a7.21,7.21,0,0,0-.469-1.611,2.176,2.176,0,0,0-1.066-.571c-.2-.065-.637-.119-.745-.289-.273-.384.34-.575.483-.819.252-.443-.289-.484-.6-.516-.185-.014-.367.006-.486-.151-.092-.144-.08-.509-.225-.584-.1-.053-.388.051-.5.093a1.485,1.485,0,0,0-.865.53c-.184.308.039.8.25,1.055.088.119.168.067.223.262.052.217-.119.363-.119.558,0,.5.445.452.8.53s.4.209.645.459c.3.307.3.446.285.917-.01.321-.023.706-.391.844-.343.133-.576-.037-.863.311-.146.161-.117.317-.2.514-.092.3-.293.394-.489.6.383.144,1.708.105,1.391.793-.172.354-.59.4-.9.452-.235.041-.891.237-.989.491C251.391,174.714,252.293,174.6,252.506,174.549Z" fill="#fff"/>
          <path id="Path_2813" data-name="Path 2813" d="M288.924,184.1a11.512,11.512,0,0,0-1.686.774c-.142.083-.277.517-.539.64s-.748-.1-1.051.013c-1.439.539-1.767,1.1-3.39,1.18.092.65.758.421.994.931.2.387,0,1.192,0,1.62-.014,1.422.131,1.433,1.6,1.5,1.744.092,2.226-.013,3.683,1.025,1.7,1.223,1.688-.16,3.012-1.038,1.56.608.013,2.091-.367,2.918-.366.792-.063,1.807-.4,2.49-.668,1.39-3.461.655-4.744.655a7.775,7.775,0,0,1-2.713-.159c-.918-.373-1.574-1.125-2.662-1.42-1.386-.367-4.31-.912-4.994.924.262.086.473.418.67.516-.562.912-2.4.34-3.133-.157a6.909,6.909,0,0,0-2.633-1.44,5.179,5.179,0,0,1-3.291-2.209c-.59-1.1-.222-2.235-1.47-2.78a1.391,1.391,0,0,0-1.444.015c-.806.306-.65.694-1.7.8-1.168.12-2.383-.066-3.555,0a7.076,7.076,0,0,0-3.115.674c-.551.321-.721.886-1.613,1.035a7.724,7.724,0,0,1-1.836,0c-1.309-.126-3.486-1.213-4.547.3-.523.74-.1,1.159-.865,1.824-.631.548-1.6.738-2.047,1.518-.955,1.626.512,2.648-1.334,3.814-1.719,1.081-2.568,1.49-3.566,3.3-.852,1.537-2.385,2.628-3.133,4.213-.522,1.086-.141,2.273-.131,3.421,0,2.5-2.268,3.735-.627,6.3.617.975,1.557,1.748,2.109,2.765.563,1.061.641,2.34,1.1,3.439.877,2.038,4.4,4.863,6.475,5.723,1.652.695,2.5.19,3.759-.479a7,7,0,0,1,3.854-.412c2.164.1,3.4-2.484,5.91-1.292,1.207.568,1.064,1.449,2.494,1.717,1.3.237,2.436-.035,3.158,1.389.914,1.808-.277,3.742-.332,5.578-.037,1.847,1.666,1.853,2.3,3.505.471,1.238.471,2.609,1.022,3.814,1.1,2.426,1.547,3.733.422,6.435-.84,2.045-1.272,4.516-.1,6.566,1.349,2.34,1.666,4.6,2.045,7.262a13.136,13.136,0,0,0,.578,3.505c.541,1.214,1.687,2.335,2.109,3.577a83.465,83.465,0,0,0,23.135-57.6,11.972,11.972,0,0,0-.977-1.512c-1.017-1.33-.634-1.959-.781-3.571-.119-1.442-1.021-1.659-2.1-2.489a4.1,4.1,0,0,1-1.443-2.112c-.408-1-1.418-2.359-1.586-3.382-.184-1.122.76-1.38,1.572-.679.25.2-.025.85.567,1.013.381.1.64-.438.994-.61a25.772,25.772,0,0,0,1.115,3.894c.455,1,1.244,1.966,1.676,3.061a5.764,5.764,0,0,0,.832,1.563,83.344,83.344,0,0,0-4.869-23.923A3.266,3.266,0,0,0,288.924,184.1Z" fill="#fff"/>
          <path id="Path_2814" data-name="Path 2814" d="M277.961,164.308c-.359.452.363.47.519.713a1.862,1.862,0,0,1,.069.853c-.014.621-.332,1.211-1.051.976-.379-.124-.867-.792-1.375-.367-.33.256-.367,1.252-.33,1.633.055.49.369,1.323-.26,1.709a3.108,3.108,0,0,1-1.654-.014c-.524-.139-.9-.486-1.506-.386-.482.079-1.141.51-1.639.655a14.421,14.421,0,0,1-4.257.126c-.252-.557-.71-1.24-.538-1.9.129-.472.825-1.062.313-1.574a1.4,1.4,0,0,0-1.613.218c-.561.631-.1,1.03.107,1.633a1.966,1.966,0,0,1-.156,1.7c-.459.562-1.274.229-1.928.383a1.639,1.639,0,0,0-1,.47c-.2.3-.023.725-.445.976-.537.308-1.231.171-1.754.617a32.64,32.64,0,0,1-2.846,2.4,7.19,7.19,0,0,1-2.344.669,13.7,13.7,0,0,1-2.258.4,1.919,1.919,0,0,0,.317,1.454,16.006,16.006,0,0,1,1.191,1.411c.75,1.144.774,2.429-.785,2.843-1.379.373-2.91-.269-4.34-.2-.443.021-1.427-.06-1.687.451-.33.617.537,1.286.9,1.646a11.436,11.436,0,0,1,.945.785c.5.714-.1,2.1-.472,2.767-.172.328-.879.837-.93,1.172-.252,1.351,1.481,2.158,2.461,2.373.852.176,2.451.655,3.319.394.957-.288,1.871-1.727,2.228-2.655.553-1.409.338-2.115,1.742-2.968.5-.3,1.166-.32,1.612-.806s.38-1.349.851-1.75c.707-.589,2.426-.176,3.317-.6,1.457-.674,1.625-1.093,3.146-.063,1.334.9,2.543,1.965,3.787,2.9.959.707.631.634.9,1.728a4.492,4.492,0,0,0,1.2,2.125,2.828,2.828,0,0,0,1.074-2.621c.5-.027,1.037-.007,1.533-.04.682-2.812-6.566-2.707-6.133-5.969.891-.245,1.063.294,1.731.574.471.21,1.218.192,1.664.445.641.362.629.808,1.166,1.3.383.354.879.334,1.324.65,1.834,1.277.141,4.881,4.078,4.62-1.369.734.088,2.082.393,3.091.051-1.009.941-1.686.916-2.849-.014-1.293-.67-1.639.8-2.1.943-.3,1.965-.321,2.884-.663,1.4-.511,1.206-.555.827-1.972-.147-.531-.565-.439-.317-1.17.131-.363.955-.842,1.207-1.215.549-.839.864-2.509,2.2-2.576,1.4-.065.864,1.371,1.69,1.986a1.86,1.86,0,0,0,1.386.265,83.609,83.609,0,0,0-8.925-16.356,10.739,10.739,0,0,1-1.231-.305C279.7,164.229,278.156,164.057,277.961,164.308Z" fill="#fff"/>
          <path id="Path_2815" data-name="Path 2815" d="M267.76,157.322c-.235.55.011.924-.393,1.46-.824,1.114-2.414,1.186-3.656,1.45-1.008.207-1.18,1.152-2.162,1.447-.055.988-.117,2.928.629,3.671,1,.975,2.988-.809,4.166-.527.877.21.681.893.906,1.515a3.919,3.919,0,0,0,1.767,1.711,1.915,1.915,0,0,0,2.245-.662c.4-.63.17-1.345.718-1.881.5-.473.891-.716,1-1.467.146-1.114-.512-.759-1.114-1.372-1.508-1.506,1.678-2.293,2.475-2.7a3.305,3.305,0,0,0,1.023-.785c.211-.256.317-.792.577-.972a.632.632,0,0,1,.236-.109q-1.931-2.252-4.018-4.362C270.2,154.58,268.432,155.777,267.76,157.322Z" fill="#fff"/>
          <path id="Path_2816" data-name="Path 2816" d="M276.256,159.557c-.527,1.125-1.615,2.3-.4,3.5,1.036,1.015,2.213-.048,3.342-.138.217-.017.487-.04.766-.058q-1.679-2.265-3.5-4.413A2.811,2.811,0,0,1,276.256,159.557Z" fill="#fff"/>
        </g>
        <path id="Path_2817" data-name="Path 2817" d="M200.537,142A45.408,45.408,0,0,0,197.232,148a57.359,57.359,0,0,0-4.669,30.319c1.32,11,5.954,22.318,14.017,30.1a39.778,39.778,0,0,0,28.68,10.82,59.585,59.585,0,0,0,17.9-3.266c5.432-1.841,10.912-3.983,15.574-7.39a30.637,30.637,0,0,0,10.313-13.219c.062-.153.117-.31.178-.464A59.563,59.563,0,0,0,200.537,142Z" fill="#fff" opacity="0.3"/>
      </g>
    </g>
  </g>
</svg>
