<svg id="Group_26" data-name="Group 26" xmlns="http://www.w3.org/2000/svg" xmlns:xlink="http://www.w3.org/1999/xlink" width="35.383" height="43.29" viewBox="0 0 35.383 43.29">
  <defs>
    <clipPath id="clip-path">
      <rect id="Rectangle_13" data-name="Rectangle 13" width="35.383" height="43.29" fill="#5a6fa4"/>
    </clipPath>
  </defs>
  <g id="Group_15" data-name="Group 15" clip-path="url(#clip-path)">
    <path id="Path_37" data-name="Path 37" d="M2.057,134.593a1.022,1.022,0,0,0-.157-.075,2.327,2.327,0,0,1-1.884-2.3c-.019-.845,0-1.691,0-2.536q0-12.851,0-25.7c0-.2-.05-.437.051-.579a1.143,1.143,0,0,1,.615-.459.556.556,0,0,1,.658.455,2.638,2.638,0,0,1,.038.588q0,13.908,0,27.815a4.65,4.65,0,0,0,.022.591,1.075,1.075,0,0,0,1.057.932c.136.01.273.005.409.005H32.5c1.151,0,1.509-.337,1.51-1.424q0-2.177,0-4.354a3.74,3.74,0,0,1,.008-.38.631.631,0,0,1,.661-.62.622.622,0,0,1,.686.637c.023.521.009,1.043.01,1.564q0,1.48,0,2.959c0,1.7-.389,2.253-2.046,2.886Z" transform="translate(0 -91.303)" fill="#5a6fa4"/>
    <path id="Path_38" data-name="Path 38" d="M34.042,5.859c0-.583,0-1.143,0-1.7s.008-1.127,0-1.691c-.016-.8-.445-1.189-1.3-1.193-1.03,0-2.061,0-3.091,0-.568,0-.874-.236-.864-.65.01-.395.309-.616.852-.617C30.713,0,31.789,0,32.865,0A2.409,2.409,0,0,1,35.4,2.232c.013.182.012.366.012.549q0,14.815,0,29.63a3.389,3.389,0,0,1-.024.548.674.674,0,0,1-1.314.012,3.081,3.081,0,0,1-.026-.547q0-12.3,0-24.6v-.63H1.4c0,.539,0,1.07,0,1.6,0,.182.044.412-.055.535-.155.192-.414.429-.628.429S.254,9.514.092,9.324C0,9.215.04,9,.04,8.831q0-3.107,0-6.213C.042.926,1.036,0,2.847,0H25.893c.136,0,.274-.007.409,0a.665.665,0,0,1,.662.631.665.665,0,0,1-.666.628c-.15.012-.3,0-.454,0H2.889c-1.1,0-1.483.347-1.485,1.361,0,.93,0,1.86,0,2.79v.437Z" transform="translate(-0.028 0)" fill="#5a6fa4"/>
    <path id="Path_39" data-name="Path 39" d="M174.617,277.851a5.236,5.236,0,1,1,5.168,4.921,5.048,5.048,0,0,1-5.168-4.921m5.208-3.524a3.6,3.6,0,1,0,3.869,3.593,3.719,3.719,0,0,0-3.869-3.593" transform="translate(-153.414 -242.223)" fill="#5a6fa4"/>
    <path id="Path_40" data-name="Path 40" d="M174.618,81.574a5.237,5.237,0,1,1,5.234,4.853,5.058,5.058,0,0,1-5.234-4.853m5.215,3.583a3.6,3.6,0,1,0-3.851-3.57,3.724,3.724,0,0,0,3.851,3.57" transform="translate(-153.416 -68.05)" fill="#5a6fa4"/>
    <path id="Path_41" data-name="Path 41" d="M174.615,179.748a5.237,5.237,0,1,1,5.228,4.86,5.049,5.049,0,0,1-5.228-4.86m5.221,3.591a3.6,3.6,0,1,0-3.857-3.607,3.726,3.726,0,0,0,3.857,3.607" transform="translate(-153.413 -155.148)" fill="#5a6fa4"/>
    <path id="Path_42" data-name="Path 42" d="M43.214,100.249q2.612,0,5.223,0c.572,0,.891.229.889.628s-.332.638-.893.639q-5.246,0-10.491,0c-.03,0-.061,0-.091,0-.5-.02-.786-.254-.786-.643s.278-.622.79-.623q2.68-.006,5.359,0" transform="translate(-32.564 -88.927)" fill="#5a6fa4"/>
    <path id="Path_43" data-name="Path 43" d="M43.166,198.164H48.3a3.537,3.537,0,0,1,.453.016.593.593,0,0,1,.565.57.576.576,0,0,1-.481.633,2.273,2.273,0,0,1-.539.047q-5.109,0-10.217,0a2.831,2.831,0,0,1-.407-.017.615.615,0,0,1-.6-.665.608.608,0,0,1,.651-.579c.2-.012.393-.006.59-.006h4.859" transform="translate(-32.563 -175.785)" fill="#5a6fa4"/>
    <path id="Path_44" data-name="Path 44" d="M43.04,297.26c-1.741,0-3.482.008-5.222-.009a1.212,1.212,0,0,1-.7-.208.582.582,0,0,1,.3-1,2.166,2.166,0,0,1,.539-.045q5.109,0,10.217,0c.076,0,.151,0,.227,0,.491.021.8.269.8.638s-.305.625-.8.626c-1.786.006-3.572,0-5.358,0" transform="translate(-32.439 -262.566)" fill="#5a6fa4"/>
    <path id="Path_45" data-name="Path 45" d="M40.446,129.329c-.862,0-1.725,0-2.587,0-.5,0-.791-.235-.8-.623s.283-.639.78-.641q2.61-.008,5.22,0c.489,0,.8.255.807.627s-.3.634-.791.638c-.878.006-1.755,0-2.633,0" transform="translate(-32.562 -113.598)" fill="#5a6fa4"/>
    <path id="Path_46" data-name="Path 46" d="M40.481,226.055c.862,0,1.725,0,2.587,0,.491,0,.8.253.8.628s-.311.635-.8.636q-2.61.008-5.22,0c-.5,0-.788-.247-.789-.635s.284-.626.787-.629c.878-.006,1.755,0,2.633,0" transform="translate(-32.561 -200.526)" fill="#5a6fa4"/>
    <path id="Path_47" data-name="Path 47" d="M40.482,324c.847,0,1.694,0,2.541,0,.535,0,.846.239.848.624s-.32.639-.841.64q-2.564.007-5.128,0c-.542,0-.834-.233-.836-.634s.279-.627.829-.631c.862-.005,1.724,0,2.587,0" transform="translate(-32.565 -287.412)" fill="#5a6fa4"/>
    <path id="Path_48" data-name="Path 48" d="M198.282,301.56c.465-.666.892-1.3,1.342-1.913a.677.677,0,0,1,1.126-.073.774.774,0,0,1,.032.7c-.529.836-1.111,1.644-1.689,2.453a.689.689,0,0,1-.951.211c-.615-.3-1.232-.6-1.838-.92a.6.6,0,0,1-.318-.856.7.7,0,0,1,.975-.243c.432.2.853.417,1.322.647" transform="translate(-172.117 -265.505)" fill="#5a6fa4"/>
    <path id="Path_49" data-name="Path 49" d="M198.277,105.278c.465-.665.892-1.3,1.342-1.913a.672.672,0,0,1,1.1-.107.8.8,0,0,1,.062.725c-.525.839-1.111,1.645-1.688,2.454a.693.693,0,0,1-.953.21c-.616-.3-1.233-.6-1.839-.921a.6.6,0,0,1-.314-.857.7.7,0,0,1,.973-.242c.432.2.853.418,1.32.649" transform="translate(-172.114 -91.386)" fill="#5a6fa4"/>
    <path id="Path_50" data-name="Path 50" d="M198.269,203.482c.453-.648.891-1.269,1.324-1.894a.713.713,0,0,1,.9-.3.585.585,0,0,1,.3.885q-.85,1.273-1.752,2.516a.641.641,0,0,1-.846.191c-.658-.316-1.315-.637-1.957-.981a.575.575,0,0,1-.254-.839.685.685,0,0,1,.9-.257c.461.2.9.441,1.384.678" transform="translate(-172.105 -178.51)" fill="#5a6fa4"/>
  </g>
</svg>
