<svg xmlns="http://www.w3.org/2000/svg" width="42.653" height="42.278" viewBox="0 0 42.653 42.278">
  <g id="Group_172" data-name="Group 172" transform="translate(-259.396 -52.75)">
    <path id="Path_615" data-name="Path 615" d="M302.05,86.162a1.279,1.279,0,0,1-1.379.838c-1.4-.024-2.808.014-4.211-.013a16.375,16.375,0,0,0-5.948,1.03q-9.525,3.457-19.068,6.865c-.923.332-1.4.106-1.732-.827l-4.66-12.964c-.233-.649-.159-.975.259-1.134.4-.153.687.066.917.707q2.269,6.3,4.537,12.61l.168.463,13.684-4.92-.016-.065c-1.03.174-2.061.345-3.091.522q-4.187.718-8.372,1.439a1.053,1.053,0,0,1-1.284-.933q-.837-4.821-1.66-9.645-1.148-6.69-2.294-13.38l-.661-3.851-6.57,2.251c.056.173.1.314.146.451q2.118,5.895,4.237,11.789a2.5,2.5,0,0,1,.109.314.589.589,0,0,1-.383.739.58.58,0,0,1-.771-.3,1.553,1.553,0,0,1-.093-.231c-1.481-4.112-2.967-8.221-4.429-12.339a1.311,1.311,0,0,1,0-.948,1.569,1.569,0,0,1,.811-.635c2.089-.749,4.191-1.459,6.289-2.183.142-.049.282-.1.44-.158-.108-.617-.209-1.2-.312-1.79-.173-.98.118-1.4,1.1-1.568,2.255-.391,4.511-.778,6.815-1.175V56.66c0-.889-.005-1.779,0-2.668a1.1,1.1,0,0,1,1.2-1.232c.1,0,.194,0,.292,0q9.673,0,19.346-.008a1.812,1.812,0,0,1,1.371.549c1.533,1.494,3.093,2.958,4.638,4.44.208.2.381.435.57.654Zm-27.42-27.776-6.7,1.15,5.13,29.919,13.993-2.4,0-.065h-.486q-5.295,0-10.59,0c-.945,0-1.344-.4-1.344-1.342q0-5.92,0-11.841a1.577,1.577,0,0,1,.049-.451.61.61,0,0,1,1.187.1,3.855,3.855,0,0,1,.012.458q0,5.649,0,11.3v.5h24.892V59.338h-.435c-1.306-.005-2.613.013-3.918-.023a1.405,1.405,0,0,1-1.463-1.525c-.009-.764,0-1.529-.006-2.293,0-.481,0-.962,0-1.454H275.88v.53q0,7.838,0,15.676a4.346,4.346,0,0,1-.009.458.612.612,0,0,1-1.2.106,1.849,1.849,0,0,1-.042-.494q0-5.691,0-11.382Zm25.28-.3.02-.1-3.722-3.545c0,1.185,0,2.263,0,3.342,0,.256.157.294.353.3.5.005,1,.01,1.5.011C298.674,58.088,299.291,58.087,299.909,58.087Z" transform="translate(0 0)" fill="#5a6fa4"/>
    <path id="Path_616" data-name="Path 616" d="M318.659,99.818h-8.583c-.111,0-.223.005-.333,0a.624.624,0,1,1,.015-1.247c.1-.006.195,0,.292,0H327.3a3.244,3.244,0,0,1,.333,0,.622.622,0,0,1-.015,1.243c-.11.009-.222,0-.333,0Z" transform="translate(-30.197 -27.832)" fill="#5a6fa4"/>
    <path id="Path_617" data-name="Path 617" d="M318.692,87.269h8.582a3.676,3.676,0,0,1,.416.01.573.573,0,0,1,.541.542.562.562,0,0,1-.415.641,1.647,1.647,0,0,1-.492.055q-8.645,0-17.29,0a1.745,1.745,0,0,1-.492-.051.61.61,0,0,1,.109-1.186,3.194,3.194,0,0,1,.416-.011Z" transform="translate(-30.206 -20.969)" fill="#5a6fa4"/>
    <path id="Path_618" data-name="Path 618" d="M318.641,111.119h-8.582a3.124,3.124,0,0,1-.416-.011.61.61,0,0,1-.13-1.173,1.668,1.668,0,0,1,.531-.064q8.624,0,17.248,0a1.921,1.921,0,0,1,.494.046.563.563,0,0,1,.447.62.574.574,0,0,1-.552.575,3.868,3.868,0,0,1-.416.008Z" transform="translate(-30.206 -34.699)" fill="#5a6fa4"/>
    <path id="Path_619" data-name="Path 619" d="M318.7,75.928h8.582c.637,0,.944.2.95.618s-.3.632-.935.632H310.053c-.111,0-.223,0-.333-.008a.617.617,0,0,1-.015-1.233,3.866,3.866,0,0,1,.416-.009Z" transform="translate(-30.199 -14.08)" fill="#5a6fa4"/>
    <path id="Path_620" data-name="Path 620" d="M318.652,121.21h8.623a3.255,3.255,0,0,1,.416.013.572.572,0,0,1,.537.588.566.566,0,0,1-.464.608,1.925,1.925,0,0,1-.454.04q-8.644,0-17.288,0a1.7,1.7,0,0,1-.493-.054.508.508,0,0,1-.4-.636,1.222,1.222,0,0,1,.488-.531c.105-.073.3-.027.449-.027Z" transform="translate(-30.2 -41.58)" fill="#5a6fa4"/>
  </g>
</svg>
