<svg xmlns="http://www.w3.org/2000/svg" width="35.497" height="35.497" viewBox="0 0 35.497 35.497">
  <path id="Icon_awesome-user-circle" data-name="Icon awesome-user-circle" d="M17.748.937A17.748,17.748,0,1,0,35.5,18.686,17.745,17.745,0,0,0,17.748.937Zm0,6.87a6.3,6.3,0,1,1-6.3,6.3A6.3,6.3,0,0,1,17.748,7.808Zm0,24.619A13.714,13.714,0,0,1,7.264,27.546a7.979,7.979,0,0,1,7.049-4.28,1.751,1.751,0,0,1,.508.079,9.475,9.475,0,0,0,2.927.494,9.439,9.439,0,0,0,2.927-.494,1.751,1.751,0,0,1,.508-.079,7.979,7.979,0,0,1,7.049,4.28A13.714,13.714,0,0,1,17.748,32.426Z" transform="translate(0 -0.938)" fill="#5a6fa4"/>
</svg>
